<svg width="328" height="411" viewBox="0 0 328 411" fill="none" xmlns="http://www.w3.org/2000/svg">
<path fill-rule="evenodd" clip-rule="evenodd" d="M151.151 83C66.5842 89.5385 0 160.23 0 246.474C0 337.031 73.4108 410.442 163.968 410.442C254.524 410.442 327.935 337.031 327.935 246.474C327.935 161.134 262.739 91.0213 179.436 83.2266V93.2738C257.207 101.032 317.935 166.661 317.935 246.474C317.935 331.508 249.002 400.442 163.968 400.442C78.9336 400.442 10 331.508 10 246.474C10 165.756 72.1135 99.5457 151.151 93.0323V83Z" fill="#AF283A"/>
<path d="M164 335.5H168.721C170.176 342.264 173.506 349.058 178.919 353.822C185.869 359.94 195.655 362.164 207.302 357.664C214.951 354.709 220.776 348.432 225.626 341.915C228.088 338.607 230.422 335.061 232.67 331.615C232.88 331.292 233.09 330.971 233.299 330.65C235.349 327.504 237.334 324.458 239.384 321.583C243.966 315.159 248.395 310.308 253.367 307.834C257.969 305.544 263.622 305.01 271.564 308.622C279.666 312.306 287.076 313.137 293.702 311.598C298.955 310.378 303.386 307.746 307.061 304.408C288.272 362.761 233.442 405 168.722 405C167.142 405 165.568 404.975 164 404.925L164 335.5Z" fill="#AF283A" stroke="#AF283A" stroke-width="10"/>
<path d="M166 335.5H161.279C159.824 342.264 156.494 349.058 151.082 353.822C144.131 359.94 134.346 362.164 122.698 357.664C115.049 354.709 109.225 348.432 104.375 341.915C101.913 338.607 99.5782 335.061 97.3304 331.615C97.1201 331.292 96.9106 330.971 96.7018 330.65C94.6512 327.504 92.6667 324.458 90.616 321.583C86.0344 315.159 81.6059 310.308 76.6338 307.834C72.0311 305.544 66.3785 305.01 58.4368 308.622C50.3346 312.306 42.9249 313.137 36.298 311.598C31.0457 310.378 26.6148 307.746 22.9393 304.408C41.7285 362.761 96.558 405 161.279 405C162.859 405 164.433 404.975 166 404.925L166 335.5Z" fill="#AF283A" stroke="#AF283A" stroke-width="10"/>
<path d="M179.476 59.2312C179.483 37.9828 172.173 18.5283 166.464 7.44965L165.559 301.282L179.397 301.67L179.476 59.2312Z" fill="#AF283A" stroke="#AF283A" stroke-width="4"/>
<path d="M149.976 59.219C149.983 38.028 157.265 18.6273 162.975 7.53822L161.872 300.876L149.896 301.59L149.976 59.219Z" stroke="#AF283A" stroke-width="4"/>
<path d="M147.897 303.126L181.397 303.14" stroke="#AF283A" stroke-width="3"/>
<path d="M147.897 301.963L155.623 316.408L174.176 316.415L181.397 301.975" stroke="#AF283A" stroke-width="3"/>
<path d="M163.52 315.669L163.24 302.461L181.181 301.918L174.236 316.086L163.52 315.669Z" fill="#AF283A" stroke="#AF283A"/>
<path d="M200.185 277.626L180.651 244L180 304C183.473 302.242 192.111 297.538 198.883 292.791C205.655 288.044 202.573 280.703 200.185 277.626Z" fill="#AF283A" stroke="#AF283A"/>
<path d="M127.815 277.626L147.349 244L148 304C144.527 302.242 135.889 297.538 129.117 292.791C122.345 288.044 125.427 280.703 127.815 277.626Z" stroke="#AF283A" stroke-width="3"/>
<path d="M141.5 255L147.5 245V304L142 301L141.5 255Z" fill="#AF283A"/>
</svg>
