<?xml version="1.0" encoding="UTF-8" standalone="no"?>
<svg
   xmlns:dc="http://purl.org/dc/elements/1.1/"
   xmlns:cc="http://creativecommons.org/ns#"
   xmlns:rdf="http://www.w3.org/1999/02/22-rdf-syntax-ns#"
   xmlns:svg="http://www.w3.org/2000/svg"
   xmlns="http://www.w3.org/2000/svg"
   xmlns:sodipodi="http://sodipodi.sourceforge.net/DTD/sodipodi-0.dtd"
   xmlns:inkscape="http://www.inkscape.org/namespaces/inkscape"
   inkscape:export-ydpi="500"
   inkscape:export-xdpi="500"
   inkscape:export-filename="C:\Users\yamwi\Worcester Polytechnic Institute (wpi.edu)\gr-HPRC - Documents\Officer\Brand Assets\hprc text logo red.png"
   width="9.25in"
   height="4.25in"
   viewBox="0 0 234.95 107.95"
   version="1.1"
   id="svg899"
   inkscape:version="1.0.2 (e86c870879, 2021-01-15, custom)"
   sodipodi:docname="hprc text logo white.svg">
  <defs
     id="defs893">
    <rect
       x="109.23512"
       y="-152.3244"
       width="144.00893"
       height="59.342262"
       id="rect1509" />
    <rect
       id="rect1509-2"
       height="59.342262"
       width="144.00893"
       y="-152.3244"
       x="109.23512" />
    <rect
       id="rect1522"
       height="59.342262"
       width="144.00893"
       y="-152.3244"
       x="109.23512" />
  </defs>
  <sodipodi:namedview
     id="base"
     pagecolor="#ffffff"
     bordercolor="#666666"
     borderopacity="1.0"
     inkscape:pageopacity="0.0"
     inkscape:pageshadow="2"
     inkscape:zoom="0.35"
     inkscape:cx="390.16855"
     inkscape:cy="151.91759"
     inkscape:document-units="mm"
     inkscape:current-layer="g1557"
     inkscape:document-rotation="0"
     showgrid="false"
     units="in"
     inkscape:window-width="1309"
     inkscape:window-height="1008"
     inkscape:window-x="2515"
     inkscape:window-y="0"
     inkscape:window-maximized="0" />
  <metadata
     id="metadata896">
    <rdf:RDF>
      <cc:Work
         rdf:about="">
        <dc:format>image/svg+xml</dc:format>
        <dc:type
           rdf:resource="http://purl.org/dc/dcmitype/StillImage" />
        <dc:title />
      </cc:Work>
    </rdf:RDF>
  </metadata>
  <g
     inkscape:label="Layer 1"
     inkscape:groupmode="layer"
     id="layer1">
    <g
       id="g1557"
       transform="translate(-6.9015927,-2.5078734)">
      <path
         style="stroke-width:0.264583;fill:#ffffff;stroke:#ffffff"
         fill-rule="evenodd"
         clip-rule="evenodd"
         d="m 46.893627,22.739629 c -22.374964,1.72998 -39.9920343,20.43377 -39.9920343,43.2525 0,23.959868 19.4232743,43.383191 43.3832043,43.383191 23.9596,0 43.38293,-19.423323 43.38293,-43.383191 0,-22.57955 -17.24977,-41.1302 -39.29036,-43.19255 v 2.65833 c 20.57691,2.05269 36.64453,19.41703 36.64453,40.53422 0,22.498578 -18.23853,40.737361 -40.7371,40.737361 -22.498689,0 -40.7373713,-18.238783 -40.7373713,-40.737361 0,-21.35664 16.4341973,-38.87478 37.3462013,-40.59812 z"
         fill="#af283a"
         id="path863" />
      <path
         d="m 50.293257,89.546917 h 1.2491 c 0.38497,1.78964 1.26603,3.58722 2.69822,4.8477 1.83886,1.61872 4.42807,2.20715 7.50967,1.01653 2.0238,-0.78185 3.565,-2.44264 4.84822,-4.16692 0.65141,-0.87525 1.26895,-1.81346 1.86373,-2.72521 0.0556,-0.0855 0.11112,-0.17039 0.16642,-0.25533 0.5424,-0.83238 1.0676,-1.638296 1.60999,-2.398973 1.21232,-1.699683 2.38416,-2.983175 3.69967,-3.637755 1.21761,-0.6059 2.7133,-0.74718 4.81462,0.20849 2.14366,0.97473 4.10422,1.19459 5.85735,0.7874 1.38986,-0.32279 2.56222,-1.01917 3.53457,-1.90235 -4.97126,15.439228 -19.47836,26.614961 -36.6022,26.614961 -0.41804,0 -0.83449,-0.007 -1.24936,-0.0198 z"
         fill="#af283a"
         stroke="#af283a"
         stroke-width="2.64583"
         id="path865"
         style="fill:#ffffff;stroke:#ffffff" />
      <path
         d="m 50.822427,89.546917 h -1.2491 c -0.38497,1.78964 -1.26603,3.58722 -2.69796,4.8477 -1.83911,1.61872 -4.42806,2.20715 -7.50993,1.01653 -2.0238,-0.78185 -3.56473,-2.44264 -4.84796,-4.16692 -0.6514,-0.87525 -1.26915,-1.81346 -1.863882,-2.72521 -0.05564,-0.0855 -0.111072,-0.17039 -0.166317,-0.25533 -0.542555,-0.83238 -1.067621,-1.638296 -1.610202,-2.398973 -1.212215,-1.699683 -2.383922,-2.983175 -3.699457,-3.637755 -1.217797,-0.6059 -2.713381,-0.74718 -4.814623,0.20849 -2.143707,0.97473 -4.10419,1.19459 -5.857558,0.7874 -1.389671,-0.32279 -2.562013,-1.01917 -3.534489,-1.90235 4.97131,15.439228 19.478281,26.614961 36.602378,26.614961 0.41804,0 0.8345,-0.007 1.2491,-0.0198 z"
         fill="#af283a"
         stroke="#af283a"
         stroke-width="2.64583"
         id="path867"
         style="fill:#ffffff;stroke:#ffffff" />
      <path
         d="m 54.387947,16.450799 c 0.002,-5.62197 -1.93225,-10.7693104 -3.44275,-13.7005304 l -0.23945,77.7431404 3.6613,0.10266 z"
         fill="#af283a"
         stroke="#af283a"
         stroke-width="1.05833"
         id="path869"
         style="fill:#ffffff;stroke:#ffffff" />
      <path
         style="fill:#ffffff;stroke:#ffffff"
         d="m 46.582747,16.447569 c 0.002,-5.60678 1.92854,-10.7398804 3.43931,-13.6738704 l -0.29183,77.6122904 -3.16865,0.18891 z"
         stroke="#af283a"
         stroke-width="1.05833"
         id="path871" />
      <path
         d="m 46.032677,80.981299 8.86354,0.004"
         stroke="#af283a"
         stroke-width="0.79375"
         id="path873"
         style="fill:#ffffff;stroke:#ffffff" />
      <path
         style="fill:#ffffff;stroke:#ffffff"
         d="m 46.032677,80.673589 2.04417,3.821906 4.90881,0.0019 1.91056,-3.820586"
         stroke="#af283a"
         stroke-width="0.79375"
         id="path875" />
      <path
         style="stroke-width:0.264583;fill:#ffffff;stroke:#ffffff"
         d="m 50.166257,84.299968 -0.0741,-3.494619 4.74689,-0.14367 -1.83753,3.748621 z"
         fill="#af283a"
         stroke="#af283a"
         id="path877" />
      <path
         style="stroke-width:0.264583;fill:#ffffff;stroke:#ffffff"
         d="m 59.867207,74.234429 -5.16837,-8.89688 -0.17224,15.875 c 0.91889,-0.46514 3.20436,-1.70974 4.99612,-2.96572 1.79176,-1.25598 0.97632,-3.19828 0.34449,-4.0124 z"
         fill="#af283a"
         stroke="#af283a"
         id="path879" />
      <path
         style="fill:#ffffff;stroke:#ffffff"
         d="m 40.719307,74.234429 5.16838,-8.89688 0.17224,15.875 c -0.9189,-0.46514 -3.20437,-1.70974 -4.99613,-2.96572 -1.79176,-1.25598 -0.97631,-3.19828 -0.34449,-4.0124 z"
         stroke="#af283a"
         stroke-width="0.79375"
         id="path881" />
      <path
         style="stroke-width:0.264583;fill:#ffffff;stroke:#ffffff"
         d="m 44.340137,68.247959 1.5875,-2.64583 v 15.61042 l -1.45521,-0.79375 z"
         fill="#af283a"
         id="path883" />
      <text
         transform="matrix(1.0797651,0,0,1.0797651,-21.132815,183.51004)"
         style="font-style:normal;font-variant:normal;font-weight:normal;font-stretch:normal;font-size:50.8px;line-height:1.25;font-family:'Futura Hv BT';-inkscape-font-specification:'Futura Hv BT';letter-spacing:-1.42366999px;word-spacing:0px;white-space:pre;shape-inside:url(#rect1509);fill:#ffffff;fill-opacity:1;stroke:#ffffff;"
         id="text1507"
         xml:space="preserve"><tspan
           x="109.23438"
           y="-107.37813"><tspan
             style="font-style:normal;font-variant:normal;font-weight:normal;font-stretch:normal;font-size:50.8px;font-family:'Futura Hv BT';-inkscape-font-specification:'Futura Hv BT';fill:#ffffff;fill-opacity:1;stroke:#ffffff">HPRC</tspan></tspan></text>
      <text
         y="0"
         x="33.746586"
         xml:space="preserve"
         id="text1507-8"
         style="font-style:normal;font-variant:normal;font-weight:normal;font-stretch:normal;font-size:14.1111px;line-height:1.25;font-family:'Futura Hv BT';-inkscape-font-specification:'Futura Hv BT';text-align:center;letter-spacing:3.93755px;word-spacing:0px;white-space:pre;shape-inside:url(#rect1509-2);fill:#ffffff;fill-opacity:1;stroke:#ffffff;"
         transform="matrix(1.3438967,0,-0.26956848,1.3438967,-113.51474,282.41239)"><tspan
           x="131.85806"
           y="-139.8392"><tspan
             style="font-style:normal;font-variant:normal;font-weight:normal;font-stretch:normal;font-size:14.1111px;font-family:'Futura Bk';-inkscape-font-specification:'Futura Bk';text-align:center;text-anchor:middle;fill:#ffffff;fill-opacity:1;stroke:#ffffff">WPI  AIAA</tspan></tspan></text>
    </g>
  </g>
</svg>
