<?xml version="1.0" encoding="UTF-8" standalone="no"?>
<svg
   xmlns:dc="http://purl.org/dc/elements/1.1/"
   xmlns:cc="http://creativecommons.org/ns#"
   xmlns:rdf="http://www.w3.org/1999/02/22-rdf-syntax-ns#"
   xmlns:svg="http://www.w3.org/2000/svg"
   xmlns="http://www.w3.org/2000/svg"
   xmlns:sodipodi="http://sodipodi.sourceforge.net/DTD/sodipodi-0.dtd"
   xmlns:inkscape="http://www.inkscape.org/namespaces/inkscape"
   viewBox="0 0 36 35.999999"
   version="1.1"
   id="svg56"
   sodipodi:docname="join-aiaa.svg"
   inkscape:version="1.0.2 (e86c870879, 2021-01-15, custom)"
   inkscape:export-filename="C:\Users\yamwi\Downloads\AIAA Logos\aiaa-logo-blue.png"
   inkscape:export-xdpi="1000"
   inkscape:export-ydpi="1000"
   width="36"
   height="36">
  <metadata
     id="metadata60">
    <rdf:RDF>
      <cc:Work
         rdf:about="">
        <dc:format>image/svg+xml</dc:format>
        <dc:type
           rdf:resource="http://purl.org/dc/dcmitype/StillImage" />
        <dc:title>aiaa-logo-dark_1</dc:title>
      </cc:Work>
    </rdf:RDF>
  </metadata>
  <sodipodi:namedview
     pagecolor="#ffffff"
     bordercolor="#666666"
     borderopacity="1"
     objecttolerance="10"
     gridtolerance="10"
     guidetolerance="10"
     inkscape:pageopacity="0"
     inkscape:pageshadow="2"
     inkscape:window-width="1920"
     inkscape:window-height="1017"
     id="namedview58"
     showgrid="false"
     inkscape:zoom="14.808167"
     inkscape:cx="23.504404"
     inkscape:cy="19.28572"
     inkscape:window-x="1912"
     inkscape:window-y="-8"
     inkscape:window-maximized="1"
     inkscape:current-layer="svg56"
     inkscape:document-rotation="0" />
  <defs
     id="defs4">
    <style
       id="style2">.cls-1{fill:#f1f2f2;}</style>
  </defs>
  <title
     id="title6">aiaa-logo-dark_1</title>
  <path
     class="cls-1"
     d="M 17.161038,15.50954 A 5.9498185,5.9498185 0 1 1 11.21122,21.459358 5.9444918,5.9444918 0 0 1 17.161038,15.50954"
     id="path8"
     style="fill:#000000;fill-opacity:1;stroke-width:0.532661" />
  <path
     class="cls-1"
     d="m 31.015539,4.7870827 h 1.832353 L 28.171132,0.27012117 23.505025,4.7870827 h 1.832353 V 10.177608 A 13.407066,13.407066 0 0 0 19.360926,7.6900828 V 6.214613 l -4.469022,4.62882 4.463696,4.671433 V 14.012764 A 7.7768442,7.7768442 0 1 1 15.946572,13.75176 L 13.171411,10.83278 16.367374,7.5143048 A 13.939727,13.939727 0 1 0 31.031519,21.400766 c 0,-0.218391 0,-0.436782 0,-0.655173 z"
     id="path10"
     style="fill:#000000;fill-opacity:1;stroke-width:0.532661" />
  <g
     aria-label="Join AIAA"
     id="text869"
     style="font-style:normal;font-variant:normal;font-weight:normal;font-stretch:normal;font-size:4px;line-height:1.25;font-family:'Futura Md BT';-inkscape-font-specification:'Futura Md BT';letter-spacing:0px;word-spacing:0px;fill:#00338e;fill-opacity:1;stroke:none;stroke-width:0.601943"
     inkscape:transform-center-x="4.5137949"
     inkscape:transform-center-y="5.5540413"
     transform="rotate(43.350046,17.020516,21.682269)">
    <path
       d="M 11.245925,28.096173 9.5040946,29.678911 Q 9.2059597,29.949816 9.0454861,30.052749 8.8850125,30.155681 8.7381857,30.190135 8.5177805,30.245263 8.3006929,30.158829 8.0852472,30.074202 7.8849421,29.853763 7.6320979,29.575504 7.6185359,29.281042 7.6066158,28.988387 7.8331526,28.696773 l 0.5678417,0.232842 q -0.1115398,0.127743 -0.1304507,0.233993 -0.017269,0.108057 0.06154,0.194787 0.098511,0.108413 0.2139689,0.07937 0.1172651,-0.03068 0.3901037,-0.278602 l 0.236701,-0.215082 1.5575298,-1.41527 z"
       style="font-style:normal;font-variant:normal;font-weight:normal;font-stretch:normal;font-size:5px;font-family:Futura;-inkscape-font-specification:Futura;fill:#ffffff;fill-opacity:1;stroke-width:0.601943"
       id="path890" />
    <path
       d="m 11.272028,31.078465 q 0.168924,-0.239365 0.129241,-0.479528 -0.03827,-0.242157 -0.273651,-0.408265 -0.235375,-0.166109 -0.472956,-0.121616 -0.237581,0.04449 -0.407913,0.285853 -0.168923,0.239365 -0.132643,0.480115 0.03628,0.24075 0.271656,0.406858 0.233381,0.1647 0.474365,0.11962 0.242978,-0.04367 0.411901,-0.283037 z m 0.57565,0.412222 Q 11.529539,31.94149 11.009205,32.022503 10.490865,32.104924 10.01812,31.7713 9.5413849,31.43486 9.4433598,30.917461 9.3453348,30.400062 9.6634743,29.949259 9.980206,29.50045 10.503942,29.41885 q 0.523737,-0.0816 0.996482,0.252024 0.474741,0.335032 0.572179,0.849028 0.09744,0.513997 -0.224925,0.970785 z"
       style="font-style:normal;font-variant:normal;font-weight:normal;font-stretch:normal;font-size:5px;font-family:Futura;-inkscape-font-specification:Futura;fill:#ffffff;fill-opacity:1;stroke-width:0.601943"
       id="path892" />
    <path
       d="m 13.039388,29.561004 q 0.06903,-0.150983 0.227571,-0.210036 0.158539,-0.05905 0.309522,0.01 0.153204,0.07005 0.212257,0.228586 0.06229,0.157334 -0.0078,0.310538 -0.07005,0.153203 -0.230807,0.211241 -0.158539,0.05905 -0.311743,-0.01099 -0.150983,-0.06903 -0.209021,-0.229791 -0.05804,-0.16076 0.01,-0.309523 z m -1.349481,3.098328 0.995878,-2.178152 0.630576,0.288307 -0.995878,2.178152 z"
       style="font-style:normal;font-variant:normal;font-weight:normal;font-stretch:normal;font-size:5px;font-family:Futura;-inkscape-font-specification:Futura;fill:#ffffff;fill-opacity:1;stroke-width:0.601943"
       id="path894" />
    <path
       d="m 12.963697,33.256571 0.574272,-2.325151 0.661282,0.163325 -0.09015,0.365008 q 0.238702,-0.182462 0.473621,-0.237606 0.237875,-0.05693 0.493855,0.0063 0.270201,0.06673 0.429875,0.204247 0.162629,0.135728 0.223041,0.349315 0.02814,0.110057 0.01903,0.238575 -0.0062,0.126733 -0.07055,0.387454 l -0.01815,0.07347 -0.335431,1.358116 -0.675503,-0.166837 0.283917,-1.14954 q 0.105956,-0.429003 0.04036,-0.591061 -0.06559,-0.162057 -0.307353,-0.221767 -0.139841,-0.03454 -0.272985,-0.0046 -0.130189,0.0282 -0.234748,0.115541 -0.08211,0.06774 -0.136898,0.16737 -0.05241,0.100219 -0.106272,0.318276 l -0.02283,0.09244 -0.25289,1.02392 z"
       style="font-style:normal;font-variant:normal;font-weight:normal;font-stretch:normal;font-size:5px;font-family:Futura;-inkscape-font-specification:Futura;fill:#ffffff;fill-opacity:1;stroke-width:0.601943"
       id="path896" />
    <path
       d="m 19.206008,32.32646 -0.580119,-1.075781 q -0.02508,-0.04787 -0.07152,-0.166477 -0.04645,-0.118605 -0.10429,-0.292248 -0.0036,0.176185 -0.01021,0.318241 -0.007,0.139646 -0.01406,0.187779 l -0.198217,1.18719 z m -2.028306,1.706635 0.770046,-3.745837 0.862748,-0.139941 1.933872,3.307251 -0.857927,0.139159 -0.408349,-0.702965 -1.366418,0.221638 -0.124242,0.789354 z"
       style="font-style:normal;font-variant:normal;font-weight:normal;font-stretch:normal;font-size:5px;font-family:Futura;-inkscape-font-specification:Futura;fill:#ffffff;fill-opacity:1;stroke-width:0.601943"
       id="path898" />
    <path
       d="m 21.087922,33.201863 -1.309811,-3.325573 0.711001,-0.280035 1.30981,3.325573 z"
       style="font-style:normal;font-variant:normal;font-weight:normal;font-stretch:normal;font-size:5px;font-family:Futura;-inkscape-font-specification:Futura;fill:#ffffff;fill-opacity:1;stroke-width:0.601943"
       id="path900" />
    <path
       d="m 23.36132,30.478157 -0.973635,-0.738835 q -0.04266,-0.03318 -0.134059,-0.121895 -0.0914,-0.08871 -0.215982,-0.222794 0.06973,0.161839 0.122532,0.293883 0.05145,0.130013 0.06499,0.176736 l 0.311367,1.162652 z m -1.13915,2.393526 -0.850792,-3.728326 0.727277,-0.484752 3.130137,2.209075 -0.723215,0.482044 -0.66286,-0.470664 -1.151861,0.76775 0.213898,0.769911 z"
       style="font-style:normal;font-variant:normal;font-weight:normal;font-stretch:normal;font-size:5px;font-family:Futura;-inkscape-font-specification:Futura;fill:#ffffff;fill-opacity:1;stroke-width:0.601943"
       id="path902" />
    <path
       d="m 25.603721,28.2612 -1.146863,-0.422547 q -0.05048,-0.01929 -0.163796,-0.07747 -0.113313,-0.05818 -0.271597,-0.150069 0.113922,0.134447 0.20296,0.245334 0.08715,0.10934 0.113734,0.150078 l 0.637102,1.021181 z m -0.391079,2.621771 -1.90177,-3.317761 0.554159,-0.675888 3.638547,1.199475 -0.551063,0.672112 -0.771358,-0.256739 -0.877676,1.070471 0.429265,0.673977 z"
       style="font-style:normal;font-variant:normal;font-weight:normal;font-stretch:normal;font-size:5px;font-family:Futura;-inkscape-font-specification:Futura;fill:#ffffff;fill-opacity:1;stroke-width:0.601943"
       id="path904" />
  </g>
  <circle
     style="opacity:0.999;fill:none;stroke:none;stroke-width:0.0182532;stroke-linecap:round;stroke-miterlimit:4;stroke-dasharray:none;stroke-dashoffset:2.94803;stroke-opacity:1"
     id="path838"
     sodipodi:type="arc"
     sodipodi:cx="24.365538"
     sodipodi:cy="13.149396"
     sodipodi:rx="12.0664"
     sodipodi:ry="12.0664"
     sodipodi:start="5.1910167"
     sodipodi:end="4.5086056"
     sodipodi:arc-type="slice"
     d="M 29.922857,2.4389245 A 12.0664,12.0664 0 0 1 35.864023,16.807652 12.0664,12.0664 0 0 1 22.712561,25.102039 12.0664,12.0664 0 0 1 12.30578,13.549693 12.0664,12.0664 0 0 1 21.92359,1.3326752 l 2.441948,11.8167208 z"
     transform="matrix(0.16676243,0.98599711,0.98599711,-0.16676243,0,0)" />
</svg>
