<?xml version="1.0" standalone="no"?>
<!DOCTYPE svg PUBLIC "-//W3C//DTD SVG 20010904//EN"
 "http://www.w3.org/TR/2001/REC-SVG-20010904/DTD/svg10.dtd">
<svg version="1.0" xmlns="http://www.w3.org/2000/svg"
 width="2400.000000pt" height="1686.000000pt" viewBox="0 0 2400.000000 1686.000000"
 preserveAspectRatio="xMidYMid meet">

<g transform="translate(0.000000,1686.000000) scale(0.100000,-0.100000)"
fill="#000000" stroke="none">
<path d="M10515 16853 c-474 -3 -1785 -22 -2305 -33 -2639 -58 -4514 -155
-5230 -270 -650 -106 -1254 -415 -1726 -885 -83 -83 -186 -198 -230 -257 -412
-553 -641 -1246 -783 -2368 -46 -362 -118 -1050 -135 -1295 -131 -1867 -139
-3687 -26 -6060 44 -918 96 -1540 176 -2085 109 -752 365 -1520 662 -1990 284
-449 754 -822 1322 -1050 822 -329 2068 -424 6785 -520 3316 -67 5818 -47
8500 70 1381 60 3427 191 3635 232 819 161 1588 685 1982 1350 124 211 267
541 378 878 150 452 243 956 325 1760 57 558 120 1429 137 1885 16 429 16
4004 0 4435 -12 325 -60 1134 -87 1460 -106 1286 -301 2116 -675 2875 -185
376 -279 513 -494 723 -440 429 -1053 736 -1681 841 -1195 200 -5834 334
-10530 304z m620 -5618 c2171 -1134 3049 -1596 3960 -2080 827 -440 896 -477
892 -481 -5 -6 -265 -147 -547 -299 -562 -301 -1184 -623 -2360 -1220 -1662
-844 -2370 -1210 -3157 -1631 -199 -107 -369 -197 -377 -200 -15 -6 -16 307
-16 3363 0 1853 3 3373 6 3376 4 4 43 -13 88 -37 45 -24 725 -380 1511 -791z"/>
</g>
</svg>
