<svg xmlns="http://www.w3.org/2000/svg" viewBox="0 0 158.21 52.67"><defs><style>.cls-1{fill:#231f20;}.cls-2{fill:#8b201b;}</style></defs><title>EBAD-Logo-B-TM-RGB</title><g id="Layer_2" data-name="Layer 2"><g id="Layer_1-2" data-name="Layer 1"><path class="cls-1" d="M.36,44.78H4.57a.16.16,0,0,1,.14.07.08.08,0,0,1,0,.06.64.64,0,0,1,0,.07v.09a.57.57,0,0,1,0,.13s0,.09,0,.13,0,.09,0,.14a.49.49,0,0,1,0,.12v.13a.21.21,0,0,1-.09.14.2.2,0,0,1-.13,0H1.85l-.17,0a.28.28,0,0,0-.12,0,.19.19,0,0,0-.07.13,1,1,0,0,0,0,.18V47l0,.12a.11.11,0,0,0,.06.07.19.19,0,0,0,.12,0H4.14l.16,0a.18.18,0,0,1,.11,0,.14.14,0,0,1,.06.1,1,1,0,0,1,0,.17v.19c0,.06,0,.12,0,.17v.12a.31.31,0,0,1,0,.1.21.21,0,0,1-.07.11.34.34,0,0,1-.12,0H1.71a.3.3,0,0,0-.14.06.15.15,0,0,0-.08.11.28.28,0,0,0,0,.09v.91a1.15,1.15,0,0,0,0,.19.16.16,0,0,0,.07.12l.07,0,.08,0H4.58l.12,0a.17.17,0,0,1,.1.1.3.3,0,0,1,0,.1v.73a.2.2,0,0,1-.08.13.22.22,0,0,1-.14,0H.51L.3,51a.16.16,0,0,1-.14-.08.25.25,0,0,1,0-.13V45a.23.23,0,0,1,0-.13.2.2,0,0,1,.14-.08H.36Z"/><path class="cls-1" d="M8.18,46.38a1.89,1.89,0,0,1,.87.15A1.35,1.35,0,0,1,9.6,47a.78.78,0,0,1,.09.21,1.42,1.42,0,0,1,.07.22.59.59,0,0,1,0,.13.53.53,0,0,0,0,.12v.07a1.06,1.06,0,0,1,0,.25v2.75a.21.21,0,0,1-.13.2l-.12,0H9l-.19,0a.19.19,0,0,1-.12-.07.2.2,0,0,1,0-.13c0-.06,0-.12,0-.18V48.67a5.53,5.53,0,0,0,0-.59,1,1,0,0,0-.16-.47.68.68,0,0,0-.36-.24l-.09,0a.2.2,0,0,1-.1,0H7.56a.86.86,0,0,0-.32.14.82.82,0,0,0-.33.58,7.39,7.39,0,0,0,0,.86v1.78a.28.28,0,0,1,0,.13.18.18,0,0,1-.14.11l-.23,0H5.83a.26.26,0,0,1-.14-.06.33.33,0,0,1-.05-.23V46.86a.91.91,0,0,1,0-.17.2.2,0,0,1,0-.13.13.13,0,0,1,.06,0l.08,0h.73l.11,0a.12.12,0,0,1,.09.08.83.83,0,0,1,0,.12v.06a.11.11,0,0,0,0,0s0,.05,0,.05l0,0A.19.19,0,0,0,7,46.84a.45.45,0,0,1,.13-.11,2,2,0,0,1,.52-.28l.16,0,.18,0h.15Z"/><path class="cls-1" d="M12.49,46.37a3.49,3.49,0,0,1,1.13.14,1.35,1.35,0,0,1,.74.55,2,2,0,0,1,.11.2,1.43,1.43,0,0,1,.08.22.5.5,0,0,1,0,.12.3.3,0,0,1,0,.1.16.16,0,0,1-.09.07l-.11,0h-.74a.23.23,0,0,1-.13-.07l-.08-.11-.06-.12a.24.24,0,0,0-.09-.11.62.62,0,0,0-.17-.1.86.86,0,0,0-.21-.07l-.18,0a.44.44,0,0,0-.17,0h-.23a.67.67,0,0,0-.24.12.36.36,0,0,0-.12.22.11.11,0,0,0,0,.11.46.46,0,0,0,0,.09.61.61,0,0,0,.14.17l.2.1a1.9,1.9,0,0,0,.36.12l.4.09.4.08a2.29,2.29,0,0,1,.37.12l.15.06a.35.35,0,0,1,.14.06,1.82,1.82,0,0,1,.3.23.84.84,0,0,1,.22.3s0,.08,0,.12a.65.65,0,0,0,0,.13s0,.09,0,.16a.76.76,0,0,1,0,.17v.05s0,.07,0,.1a.28.28,0,0,1,0,.09,1.35,1.35,0,0,1-.19.46,1.22,1.22,0,0,1-.34.34,2.36,2.36,0,0,1-.45.22.73.73,0,0,1-.21.06l-.21.05-.16,0-.16,0h-.16a.62.62,0,0,1-.18,0l-.17,0h-.13l-.21,0-.19,0a3.45,3.45,0,0,1-.6-.22,1.1,1.1,0,0,1-.45-.38,2,2,0,0,1-.21-.38,1.06,1.06,0,0,1,0-.14,1,1,0,0,1,0-.12.49.49,0,0,1,0-.13.2.2,0,0,1,.09-.09l.1,0h.68l.12,0a.21.21,0,0,1,.13.11,1.22,1.22,0,0,0,.07.17l.07.11A.24.24,0,0,0,12,50a1,1,0,0,0,.2.13,1.08,1.08,0,0,0,.24.1h.18a.34.34,0,0,0,.15,0l.14,0H13l.08,0,.22-.1a.61.61,0,0,0,.16-.16.71.71,0,0,0,.07-.22.2.2,0,0,0,0-.11l0-.09a.57.57,0,0,0-.16-.18,1,1,0,0,0-.21-.11,1.8,1.8,0,0,0-.35-.12l-.36-.09-.15,0-.14,0-.53-.15a1.5,1.5,0,0,1-.46-.22,1,1,0,0,1-.36-.47,1.57,1.57,0,0,1,0-.16s0-.09,0-.15a.81.81,0,0,1,0-.16s0,0,0-.07a.12.12,0,0,1,0-.08.85.85,0,0,1,0-.17.75.75,0,0,1,.05-.16,1,1,0,0,1,.32-.41,1.66,1.66,0,0,1,.45-.26,1.17,1.17,0,0,1,.2-.06l.22,0,.1,0h.4Z"/><path class="cls-1" d="M16.65,44.84a.28.28,0,0,1,.07.21v.5a.18.18,0,0,1-.07.17.22.22,0,0,1-.13.05h-.83a.25.25,0,0,1-.13-.05.19.19,0,0,1-.05-.1s0-.11,0-.17v-.18a1.09,1.09,0,0,0,0-.17V45l0-.1.05,0,.07,0h.88A.17.17,0,0,1,16.65,44.84Zm.07,5.66c0,.11,0,.21,0,.29a.19.19,0,0,1-.16.17.2.2,0,0,1-.11,0h-.77a.23.23,0,0,1-.11-.05.25.25,0,0,1-.06-.15v-4a.26.26,0,0,1,0-.14.28.28,0,0,1,.15-.08h.65a.2.2,0,0,1,.11,0h.07l.09,0s0,0,.07,0a.16.16,0,0,1,0,.12c0,.05,0,.11,0,.17Z"/><path class="cls-1" d="M21.94,46.54a.18.18,0,0,1,.06.15,1.27,1.27,0,0,1,0,.2V50.6a.66.66,0,0,1,0,.14v.13A.62.62,0,0,0,22,51s0,.08,0,.12,0,.16,0,.23a1,1,0,0,1-.07.21,1.69,1.69,0,0,1-.38.55,1.84,1.84,0,0,1-.56.35.62.62,0,0,1-.19.07l-.2,0-.19,0a1.25,1.25,0,0,0-.19,0h-.83l-.13,0h-.09l-.17,0-.16-.05a2.33,2.33,0,0,1-.59-.36,1.24,1.24,0,0,1-.39-.57.07.07,0,0,1,0,0v0a.19.19,0,0,1,0-.17.21.21,0,0,1,.13-.07.65.65,0,0,1,.2,0h.65c.09,0,.15,0,.17.09s.06.09.11.15l.07.09,0,0,0,0,.15.09.17.08.12,0a.61.61,0,0,1,.13,0H20l.15,0,.08,0a.07.07,0,0,0,.06,0,1,1,0,0,0,.31-.2,1.38,1.38,0,0,0,.2-.31.36.36,0,0,0,0-.1l0-.11a1,1,0,0,0,0-.18V50.7s0-.05,0-.07,0-.05,0-.06a.25.25,0,0,1,0-.08.17.17,0,0,0,0-.07l0,0,0,0a.14.14,0,0,0-.13,0l-.09.08-.16.11a1,1,0,0,1-.17.1l-.19.07-.2.05h-.1l-.09,0h-.47l-.24,0-.21-.06a1.48,1.48,0,0,1-.6-.42,2.23,2.23,0,0,1-.39-.64.7.7,0,0,1-.06-.19,1.6,1.6,0,0,0-.05-.21s0-.06,0-.07a.78.78,0,0,1,0-.16.76.76,0,0,0,0-.15.22.22,0,0,1,0-.08v-.08a.61.61,0,0,1,0-.22v-.16a.2.2,0,0,1,0-.07.9.9,0,0,0,0-.16.86.86,0,0,1,0-.17,2.55,2.55,0,0,1,.11-.33,1,1,0,0,1,.14-.3.86.86,0,0,1,.1-.16l.12-.15a.28.28,0,0,1,.07-.09l.09-.08.05,0,.09-.07.09-.05a1,1,0,0,1,.23-.12,1.69,1.69,0,0,1,.27-.1.4.4,0,0,1,.15,0l.14,0a.14.14,0,0,1,.09,0h.08a1.57,1.57,0,0,1,.5.05,1.32,1.32,0,0,1,.4.18l.05,0,.06,0,.1.09a.44.44,0,0,0,.1.08h.1a.18.18,0,0,0,.05-.07.31.31,0,0,1,0-.08.16.16,0,0,0,0-.09.26.26,0,0,1,.05-.09.28.28,0,0,1,.13,0h.76A.18.18,0,0,1,21.94,46.54Zm-1.19,2.69a1.67,1.67,0,0,0,.06-.2,1.09,1.09,0,0,0,0-.26,2.35,2.35,0,0,0,0-.26.88.88,0,0,0,0-.24l0-.05a.06.06,0,0,0,0-.06l0-.12a1.17,1.17,0,0,0-.05-.11,1,1,0,0,0-.35-.47,1.11,1.11,0,0,0-.66-.17s0,0,0,0h-.06l-.11,0-.11,0a.76.76,0,0,0-.35.29,2.33,2.33,0,0,0-.2.42.2.2,0,0,0,0,.07s0,0,0,.07a1.42,1.42,0,0,0,0,.28,1.19,1.19,0,0,0,0,.29v.09l0,.14a.69.69,0,0,0,0,.13,3,3,0,0,0,.19.4.86.86,0,0,0,.32.27,1.23,1.23,0,0,0,.24.09h.29a.8.8,0,0,1,.15,0l.13,0a.86.86,0,0,0,.36-.25A1.34,1.34,0,0,0,20.75,49.23Z"/><path class="cls-1" d="M25.56,46.38a1.87,1.87,0,0,1,.86.15A1.23,1.23,0,0,1,27,47a1.36,1.36,0,0,1,.1.21c0,.07,0,.14.07.22a.59.59,0,0,1,0,.13.5.5,0,0,0,0,.12s0,.06,0,.07a2.11,2.11,0,0,1,0,.25v2.44c0,.11,0,.21,0,.31a.19.19,0,0,1-.12.2L27,51h-.61l-.19,0a.21.21,0,0,1-.13-.07.5.5,0,0,1,0-.13V48.67a5.41,5.41,0,0,0,0-.59,1,1,0,0,0-.15-.47.68.68,0,0,0-.36-.24l-.09,0a.18.18,0,0,1-.1,0h-.32a.81.81,0,0,0-.65.72,5.61,5.61,0,0,0-.06.86v1.78a.27.27,0,0,1,0,.13.19.19,0,0,1-.14.11l-.24,0h-.62a.26.26,0,0,1-.14-.06.39.39,0,0,1-.06-.23,2.72,2.72,0,0,0,0-.28V46.69a.21.21,0,0,1,.05-.13.09.09,0,0,1,.06,0l.08,0h.72l.12,0a.11.11,0,0,1,.08.08.34.34,0,0,1,0,.12.13.13,0,0,1,0,.06s0,0,0,0,0,.05,0,.05l0,0a.2.2,0,0,0,.16-.07.45.45,0,0,1,.13-.11,1.86,1.86,0,0,1,.52-.28l.16,0,.18,0h.15Z"/><path class="cls-1" d="M35.89,49a1.78,1.78,0,0,1,0,.25q0,.16,0,.24a1.36,1.36,0,0,0,0,.17c0,.05,0,.1,0,.15a1.72,1.72,0,0,1-.57.71,1.65,1.65,0,0,1-.32.18,3,3,0,0,1-.36.13.65.65,0,0,1-.2,0l-.2,0h-.23a.14.14,0,0,0-.09,0H31.13l-.25,0a.14.14,0,0,1-.14-.11.61.61,0,0,1,0-.22,2,2,0,0,0,0-.23V45.28a1.7,1.7,0,0,0,0-.22.36.36,0,0,1,0-.19.2.2,0,0,1,.13-.08h3.35l.14,0,.13,0,.31.11a1.17,1.17,0,0,1,.27.15,1,1,0,0,1,.29.3,1.61,1.61,0,0,1,.18.42.5.5,0,0,1,0,.12s0,.08,0,.13a.17.17,0,0,1,0,.07v.07a.15.15,0,0,1,0,.07.08.08,0,0,1,0,0v.19a.52.52,0,0,0,0,.11l0,.09a1.53,1.53,0,0,1-.29.52l-.13.1a.43.43,0,0,0-.12.11.1.1,0,0,0,0,.05.06.06,0,0,0,0,.07.18.18,0,0,0,.12.12l.16.09a1.49,1.49,0,0,1,.38.37,1.36,1.36,0,0,1,.22.47.57.57,0,0,1,0,.14.59.59,0,0,0,0,.14Zm-3.78-3.11a.24.24,0,0,0,0,.15v.66s0,.08,0,.12a.34.34,0,0,0,0,.11v.09a.29.29,0,0,1,0,.09l0,.07a.17.17,0,0,0,.11.06l.16,0h1.2l.22,0a.7.7,0,0,0,.4-.31.73.73,0,0,0,.07-.29.83.83,0,0,0-.08-.47.72.72,0,0,0-.31-.26l-.11,0-.13,0h-.11a.6.6,0,0,0-.24,0H32.23A.18.18,0,0,0,32.11,45.92Zm2.43,3.25a.58.58,0,0,0,0-.26,1.13,1.13,0,0,0-.06-.21.78.78,0,0,0-.48-.44,1.63,1.63,0,0,0-.33,0H32.31s0,0,0,0h0a.21.21,0,0,0-.14.09.32.32,0,0,0,0,.18v1.19a.29.29,0,0,0,0,.17.17.17,0,0,0,.11.06.48.48,0,0,0,.18,0h.89a3.33,3.33,0,0,0,.46,0,1.39,1.39,0,0,0,.39-.1.67.67,0,0,0,.27-.23.77.77,0,0,0,.07-.16,1.33,1.33,0,0,0,0-.19Z"/><path class="cls-1" d="M37.9,44.84a.33.33,0,0,1,.06.21v.5a.21.21,0,0,1-.06.17.29.29,0,0,1-.14.05h-.83a.29.29,0,0,1-.13-.05.13.13,0,0,1,0-.1.88.88,0,0,1,0-.17V45.1a.53.53,0,0,1,0-.13.19.19,0,0,1,0-.1.08.08,0,0,1,0,0l.06,0h.89A.17.17,0,0,1,37.9,44.84ZM38,50.5a2.53,2.53,0,0,1,0,.29c0,.09-.06.14-.16.17a.2.2,0,0,1-.11,0h-.77a.28.28,0,0,1-.11-.05.25.25,0,0,1,0-.15,1.34,1.34,0,0,1,0-.2V46.72a.2.2,0,0,1,0-.14.22.22,0,0,1,.15-.08h.64a.2.2,0,0,1,.11,0h.07l.1,0s0,0,.07,0a.34.34,0,0,1,0,.12V50.5Z"/><path class="cls-1" d="M41,46.37a2.6,2.6,0,0,1,1.18.21,1.74,1.74,0,0,1,.75.64,1.3,1.3,0,0,1,.21.48l0,.11a.24.24,0,0,1,0,.12A.16.16,0,0,1,43,48l-.21,0h-.62a.28.28,0,0,1-.13,0,.18.18,0,0,1-.1-.11.51.51,0,0,0-.07-.15,1,1,0,0,0-.11-.17.62.62,0,0,0-.14-.14.66.66,0,0,0-.27-.12.18.18,0,0,0-.1,0l-.1,0h-.08a.72.72,0,0,0-.28,0,1,1,0,0,0-.41.23,1.38,1.38,0,0,0-.32.6c0,.07,0,.15-.05.23s0,0,0,.07v.06a1.47,1.47,0,0,0,0,.25c0,.1,0,.18,0,.24s0,.08,0,.1a.53.53,0,0,1,0,.12.5.5,0,0,0,0,.12,2.06,2.06,0,0,0,.16.37.93.93,0,0,0,.25.27l.1.07a.48.48,0,0,0,.2.07l.24,0h.19l.11,0,.11,0a.88.88,0,0,0,.4-.33.21.21,0,0,0,.06-.1.93.93,0,0,0,0-.1A1.62,1.62,0,0,1,42,49.4a.2.2,0,0,1,.12-.12.77.77,0,0,1,.25,0H43l.07,0a.06.06,0,0,1,0,0,.14.14,0,0,1,.06.1.29.29,0,0,1,0,.13,2.82,2.82,0,0,1-.2.52,1.92,1.92,0,0,1-1.13.93l-.19,0a.72.72,0,0,0-.19,0h-.3l-.13,0-.13,0h-.24l-.09,0h-.09L40.3,51l-.17-.06a2.24,2.24,0,0,1-.68-.45,2.09,2.09,0,0,1-.46-.68c0-.05-.05-.11-.07-.17a1.33,1.33,0,0,0-.05-.19s0,0,0-.07a.2.2,0,0,0,0-.07.25.25,0,0,1,0-.12.51.51,0,0,0,0-.13v-.15a.26.26,0,0,1,0-.2.11.11,0,0,0,0-.08v-.07a.43.43,0,0,0,0-.11.17.17,0,0,1,0-.1c0-.11,0-.21.07-.3a1,1,0,0,1,.08-.29,2.25,2.25,0,0,1,.48-.74,2.19,2.19,0,0,1,.74-.47,1.21,1.21,0,0,1,.25-.08l.27,0H41Z"/><path class="cls-1" d="M44.27,44.78h.81a.17.17,0,0,1,.12.05.36.36,0,0,1,.07.25c0,.12,0,.22,0,.32v2a.57.57,0,0,1,0,.13.53.53,0,0,0,0,.13v.08l0,.09a.07.07,0,0,0,.05.07.08.08,0,0,0,.07,0l.06,0a.67.67,0,0,0,.15-.14l.14-.14a1.06,1.06,0,0,1,.15-.15,1,1,0,0,0,.13-.16l.06,0,.09-.09a.38.38,0,0,1,.09-.09l.2-.2a.1.1,0,0,1,.05-.06s0,0,0-.06a.75.75,0,0,1,.16-.15.53.53,0,0,1,.2-.09h.12a.09.09,0,0,1,.07,0h.8l.09,0a.09.09,0,0,1,.06,0,.08.08,0,0,1,0,.07.16.16,0,0,1,0,.06.47.47,0,0,1-.13.15l-.15.14-.11.12a.69.69,0,0,1-.13.11l-.07.08-.08.07-.08.07a.27.27,0,0,1-.07.08l-.33.33-.11.1a.38.38,0,0,0-.09.12s0,0,0,.06a.11.11,0,0,0,0,.08.26.26,0,0,0,.07.16l.09.13c0,.07.09.13.12.19a1.27,1.27,0,0,0,.13.19L48,50.25l.17.24a1.58,1.58,0,0,1,.15.24.2.2,0,0,1,0,.11.08.08,0,0,1,0,.09l-.06,0-.08,0h-.84a.55.55,0,0,1-.28,0,.37.37,0,0,1-.17-.16l-.13-.21c-.1-.16-.2-.31-.29-.47l-.3-.48L46,49.39a1.64,1.64,0,0,0-.14-.22l-.06-.07a.09.09,0,0,0-.09,0,.17.17,0,0,0-.12.06l-.09.07-.13.13a.42.42,0,0,0-.09.16.77.77,0,0,0,0,.15v.7a.71.71,0,0,0,0,.14v.15a.61.61,0,0,1,0,.14.2.2,0,0,1,0,.1.23.23,0,0,1-.11.08L45,51h-.59a.37.37,0,0,1-.19,0,.19.19,0,0,1-.12-.16c0-.07,0-.16,0-.26V45a.4.4,0,0,1,0-.17.15.15,0,0,1,.12-.08h.08Z"/><path class="cls-1" d="M50.62,44.78H51a.48.48,0,0,1,.18,0,.17.17,0,0,1,.11.06.37.37,0,0,1,.05.2v.24c0,.06,0,.11,0,.17a.17.17,0,0,1,0,.13.13.13,0,0,1-.08.07h-.38a1,1,0,0,0-.24.08.36.36,0,0,0-.14.2s0,0,0,.05a.06.06,0,0,1,0,0,.65.65,0,0,1,0,.11v.11a1.17,1.17,0,0,0,.05.11.17.17,0,0,0,.08.06.35.35,0,0,0,.21,0,.81.81,0,0,1,.22,0h.14a.24.24,0,0,1,.11.08s0,0,0,.08,0,.08,0,.12v.13c0,.05,0,.08,0,.1a.08.08,0,0,0,0,.07.13.13,0,0,1,0,.06.14.14,0,0,1-.1.13.25.25,0,0,1-.17,0H50.6a.23.23,0,0,0-.19.19.24.24,0,0,0,0,.12v2.77s0,.08,0,.11a.31.31,0,0,1,0,.1v.1a.34.34,0,0,1,0,.2.09.09,0,0,1-.06,0l-.08,0h-.75a.2.2,0,0,1-.11,0,.24.24,0,0,1-.14-.09.81.81,0,0,1,0-.11v-3a1.81,1.81,0,0,0,0-.25.17.17,0,0,0-.12-.15.42.42,0,0,0-.23,0,.38.38,0,0,1-.24,0,.23.23,0,0,1-.12-.15.16.16,0,0,1,0-.1v-.12a1.72,1.72,0,0,1,0-.26.19.19,0,0,1,.15-.15l.14,0h.29a.17.17,0,0,0,.1-.07.3.3,0,0,0,0-.22,1,1,0,0,1,0-.25s0,0,0-.07,0,0,0-.08.05-.16.07-.22a1.14,1.14,0,0,1,.1-.19,1,1,0,0,1,.32-.34,1.85,1.85,0,0,1,.45-.19.4.4,0,0,1,.15,0l.16,0h.14Z"/><path class="cls-1" d="M56.3,48.55a.57.57,0,0,1,0,.3v.08a.71.71,0,0,0,0,.14.32.32,0,0,1,0,.14.5.5,0,0,0,0,.12s0,.07,0,.11l-.06.19a1.07,1.07,0,0,1-.07.19,1.9,1.9,0,0,1-.48.68,2.36,2.36,0,0,1-.71.43L54.7,51l-.22,0H54a.35.35,0,0,1-.15,0h-.17l-.09,0h-.14l-.18,0-.16,0-.2-.07-.19-.09a2.39,2.39,0,0,1-.52-.42,2.26,2.26,0,0,1-.36-.59.77.77,0,0,1-.07-.16,1.21,1.21,0,0,0,0-.18.25.25,0,0,1,0-.08.31.31,0,0,0,0-.08.68.68,0,0,1,0-.14.76.76,0,0,0,0-.15.17.17,0,0,1,0-.07v-.08a.34.34,0,0,1,0-.15.57.57,0,0,1,0-.15v-.15a.28.28,0,0,1,0-.09.25.25,0,0,0,0-.08.29.29,0,0,1,0-.09l.06-.22a1.72,1.72,0,0,1,.07-.21,2.19,2.19,0,0,1,.37-.6,2.55,2.55,0,0,1,.53-.43l.19-.08.19-.08a.86.86,0,0,1,.23-.06l.25-.05h.25a2.92,2.92,0,0,1,.88.1,2.68,2.68,0,0,1,.66.31l.19.16a.73.73,0,0,1,.17.18,1.09,1.09,0,0,1,.13.17,1.74,1.74,0,0,0,.11.18.81.81,0,0,1,.1.21c0,.07,0,.15.08.23a.57.57,0,0,1,0,.14.75.75,0,0,0,0,.16v.07s0,.05,0,.07a.16.16,0,0,1,0,.1A.28.28,0,0,0,56.3,48.55Zm-1.22.31a.38.38,0,0,0,0-.12.45.45,0,0,0,0-.13v-.07a.28.28,0,0,1,0-.09s0-.07,0-.1a.43.43,0,0,0,0-.05l0-.14A.83.83,0,0,0,55,48a1.53,1.53,0,0,0-.23-.38.82.82,0,0,0-.34-.26l-.11,0-.11,0-.15,0h-.16a.06.06,0,0,1-.06,0h-.06l-.11,0a.23.23,0,0,0-.1,0,.82.82,0,0,0-.36.27,1.44,1.44,0,0,0-.21.41,1.06,1.06,0,0,0,0,.19l0,.19a.25.25,0,0,0,0,.08v.09a.87.87,0,0,0,0,.18.84.84,0,0,0,0,.19v.07l0,.14a.59.59,0,0,0,0,.13,2,2,0,0,0,.19.43,1,1,0,0,0,.32.29l.13.07.15,0s0,0,.06,0h.28l.14,0,.13,0a1.08,1.08,0,0,0,.37-.24,1.31,1.31,0,0,0,.23-.36.61.61,0,0,0,0-.18c0-.06,0-.12.05-.18s0,0,0-.07a.13.13,0,0,1,0-.06v-.17Z"/><path class="cls-1" d="M59.67,46.38a.44.44,0,0,1,.17,0,.19.19,0,0,1,.12.07.39.39,0,0,1,0,.24V47a1.7,1.7,0,0,0,0,.22.47.47,0,0,1,0,.19.19.19,0,0,1-.1.08l-.15,0h-.18a.42.42,0,0,0-.16,0l-.13,0-.11,0a1.17,1.17,0,0,0-.28.13.79.79,0,0,0-.22.18.6.6,0,0,1-.09.15l-.09.15,0,.14,0,.15a.25.25,0,0,0,0,.12.51.51,0,0,1,0,.13.06.06,0,0,0,0,.06.13.13,0,0,1,0,.06V49a.53.53,0,0,0,0,.13.76.76,0,0,1,0,.15v1.29a1.34,1.34,0,0,1,0,.21.28.28,0,0,1-.05.16l0,0-.09,0h-.83l-.09,0a.09.09,0,0,1-.06-.06.21.21,0,0,1,0-.12v-4a.23.23,0,0,1,0-.13.18.18,0,0,1,.13-.09l.21,0h.63a.18.18,0,0,1,.12.09.21.21,0,0,1,0,.12s0,.1,0,.15a1.3,1.3,0,0,0,0,.13s0,.07.08.07l0,0,0,0,.1-.1a.28.28,0,0,1,.09-.1l.07,0s0,0,.06-.06L59,46.6l.17-.09a.49.49,0,0,1,.17-.06l.19-.05h.19Z"/><path class="cls-1" d="M64.74,50.48v.24a.36.36,0,0,1,0,.19l-.11.05-.16,0h-.64a.16.16,0,0,1-.12,0,.16.16,0,0,1-.07-.11.35.35,0,0,0,0-.14l0,0,0,0a.18.18,0,0,0-.14,0l-.09.09-.11.07-.11.08-.08,0-.08,0-.26.08h-.38a.33.33,0,0,1-.15,0l-.15,0h-.21l-.2-.07-.2-.07a1.62,1.62,0,0,1-.54-.41,2.15,2.15,0,0,1-.38-.58,1.34,1.34,0,0,1-.07-.18l-.06-.19s0,0,0-.06a.13.13,0,0,0,0-.08l0-.15a1,1,0,0,0,0-.17v-.2s0-.06,0-.09a.31.31,0,0,1,0-.1.28.28,0,0,1,0-.09s0,0,0-.08v-.17a.25.25,0,0,1,0-.08l0-.18a.85.85,0,0,1,0-.17.89.89,0,0,0,.06-.2,1.59,1.59,0,0,1,.07-.2,2.87,2.87,0,0,1,.31-.49l0,0a.08.08,0,0,0,.05-.05l.07-.08.08-.07.06,0,.06,0a1.85,1.85,0,0,1,.51-.24.53.53,0,0,1,.12,0l.14,0,.15,0h.38l.15,0,.26.08a.88.88,0,0,1,.22.1l.11.08.12.08.1.07a.09.09,0,0,0,.12,0,.05.05,0,0,0,0-.06.15.15,0,0,1,0-.09V45.06a.3.3,0,0,1,0-.18.16.16,0,0,1,.13-.08h.88a.17.17,0,0,1,.13.07.29.29,0,0,1,0,.17v5.44Zm-1.18-1.7a.22.22,0,0,0,0-.08v-.07a.91.91,0,0,0,0-.17.76.76,0,0,0,0-.16c0-.07,0-.12,0-.17a.33.33,0,0,0,0-.15,1.1,1.1,0,0,0-.36-.5,1,1,0,0,0-.66-.18l-.14,0-.13,0-.1,0a.77.77,0,0,0-.37.29,1.85,1.85,0,0,0-.21.45.57.57,0,0,0,0,.18,1.16,1.16,0,0,1,0,.18v.12a1.28,1.28,0,0,0,0,.21,1.46,1.46,0,0,0,0,.2v0a.06.06,0,0,1,0,0l0,.13,0,.13A1.24,1.24,0,0,0,62,50a1,1,0,0,0,.32.12h.27l.14,0,.14,0a1,1,0,0,0,.35-.25,1.46,1.46,0,0,0,.23-.37,1,1,0,0,0,0-.16l0-.18a.25.25,0,0,0,0-.08.14.14,0,0,1,0-.09s0,0,0-.06v-.15Z"/><path class="cls-1" d="M73.47,50.56a.23.23,0,0,0,0,.09l0,.11a.34.34,0,0,1,0,.1.12.12,0,0,1-.06.08.47.47,0,0,1-.23,0h-.8a.25.25,0,0,1-.25-.12.61.61,0,0,1-.07-.14.75.75,0,0,0,0-.16L72,50.27l-.1-.27a1.21,1.21,0,0,1,0-.14.61.61,0,0,0,0-.12.32.32,0,0,0-.08-.09.37.37,0,0,0-.14-.06H69.72a.43.43,0,0,0-.27.07.24.24,0,0,0-.09.13L69.3,50a1.66,1.66,0,0,0-.12.31,2.83,2.83,0,0,1-.11.31c0,.06,0,.12-.07.19a.38.38,0,0,1-.09.15l-.13,0-.18,0h-.66a.35.35,0,0,1-.23,0,.08.08,0,0,1,0-.08.17.17,0,0,1,0-.1.2.2,0,0,1,0-.11.46.46,0,0,1,0-.09c.06-.13.11-.27.16-.41l.15-.41a.59.59,0,0,0,.06-.14.69.69,0,0,1,.05-.13l.14-.38c0-.13.09-.25.14-.37s.09-.23.13-.35.08-.22.13-.34c.13-.32.25-.64.37-1s.23-.65.37-1a.24.24,0,0,0,0-.08l0-.08c0-.12.09-.24.14-.37a2.39,2.39,0,0,1,.15-.37c0-.07,0-.13.07-.2a.36.36,0,0,1,.11-.16l.11,0h1a.29.29,0,0,1,.29.2c0,.06,0,.13.07.2s.08.19.11.29l.12.29,0,.11,0,.1c0,.12.09.23.13.35s.08.22.13.34c.11.29.22.58.32.88s.22.58.34.87a.25.25,0,0,1,0,.07.14.14,0,0,0,0,.06c0,.1.07.19.11.28l.1.28a1.12,1.12,0,0,1,0,.13.78.78,0,0,0,0,.14l.21.56c.06.18.13.36.2.54a.06.06,0,0,1,0,0S73.46,50.54,73.47,50.56Zm-2.25-2a.14.14,0,0,0,.1-.15.46.46,0,0,0,0-.2.14.14,0,0,1,0-.06.1.1,0,0,0,0-.07c-.07-.2-.14-.4-.2-.6s-.14-.41-.22-.61l0-.11a.56.56,0,0,0,0-.12l-.06-.1a.1.1,0,0,0-.09,0l0,0,0,0a.68.68,0,0,0-.1.21,1.55,1.55,0,0,1-.07.23c-.07.17-.13.33-.19.5A4.24,4.24,0,0,1,70,48l-.06.17a1.21,1.21,0,0,1,0,.18.22.22,0,0,0,0,.16.21.21,0,0,0,.14.07h1Z"/><path class="cls-1" d="M78.29,48.69a.43.43,0,0,1,0,.16.17.17,0,0,1-.06.11.33.33,0,0,1-.12,0h-2.8l-.1,0s-.08,0-.09.07l0,.06a.14.14,0,0,0,0,.09s0,.07,0,.1a.3.3,0,0,0,0,.1,1.27,1.27,0,0,0,.17.35,1.05,1.05,0,0,0,.27.24.44.44,0,0,0,.15.05l.15,0,.19,0h.29l.16,0,.14,0,.2-.11a.76.76,0,0,0,.16-.14l.09-.12a.36.36,0,0,1,.12-.08.46.46,0,0,1,.22,0H78a.35.35,0,0,1,.12,0s0,0,0,.08a.16.16,0,0,1,0,.1A1.47,1.47,0,0,1,78,50a1.45,1.45,0,0,1-.12.19,1.91,1.91,0,0,1-.43.46,2.3,2.3,0,0,1-.61.29.77.77,0,0,1-.19.05,1.38,1.38,0,0,0-.2,0h-.25l-.1,0-.1,0H75.9a.22.22,0,0,1-.11,0h-.1l-.09,0-.19,0a.56.56,0,0,1-.18-.07l-.18-.06-.15-.08a2.38,2.38,0,0,1-.49-.4,1.77,1.77,0,0,1-.36-.53,1.59,1.59,0,0,1-.07-.2,1.59,1.59,0,0,0-.07-.2s0-.05,0-.07a.13.13,0,0,0,0-.06,1.57,1.57,0,0,1,0-.23c0-.08,0-.16,0-.24v-.3l0-.21.06-.28a1.2,1.2,0,0,1,.08-.27,2.27,2.27,0,0,1,1.27-1.27,1.13,1.13,0,0,1,.24-.08l.27,0H76a2.16,2.16,0,0,1,.76.1,2.52,2.52,0,0,1,.57.28l.16.12.14.13a.12.12,0,0,0,.07.07l.13.2.13.2.07.16a1.34,1.34,0,0,0,.07.18c0,.08,0,.16.07.24a1.05,1.05,0,0,0,.06.24.76.76,0,0,1,0,.15.66.66,0,0,0,0,.15ZM77,48.18A.24.24,0,0,0,77,48c0-.08,0-.14-.07-.18a.87.87,0,0,0-.32-.36,1.1,1.1,0,0,0-.56-.14.07.07,0,0,1-.06,0h-.06l-.1,0-.09,0a1,1,0,0,0-.57.48l0,.09,0,.12a.41.41,0,0,0,0,.11.14.14,0,0,0,0,.08.36.36,0,0,0,.19,0h1.46A.22.22,0,0,0,77,48.18Z"/><path class="cls-1" d="M81.58,46.38a.47.47,0,0,1,.17,0,.19.19,0,0,1,.12.07.48.48,0,0,1,0,.24v.52a.47.47,0,0,1,0,.19.16.16,0,0,1-.1.08l-.15,0h-.17a.47.47,0,0,0-.17,0l-.12,0-.11,0a1,1,0,0,0-.28.13.58.58,0,0,0-.22.18l-.09.15-.09.15a.78.78,0,0,0,0,.14s0,.1,0,.15a.5.5,0,0,0,0,.12.53.53,0,0,1,0,.13.13.13,0,0,0,0,.06V49a.28.28,0,0,0,0,.13s0,.1,0,.15v1.29c0,.08,0,.15,0,.21a.38.38,0,0,1,0,.16l-.06,0-.08,0h-.84l-.08,0a.09.09,0,0,1-.06-.06.16.16,0,0,1,0-.12,1.09,1.09,0,0,1,0-.18V46.73a.17.17,0,0,1,0-.13.18.18,0,0,1,.13-.09l.21,0H80a.18.18,0,0,1,.12.09.21.21,0,0,1,0,.12s0,.1,0,.15a.25.25,0,0,0,0,.13.08.08,0,0,0,.08.07s0,0,0,0l0,0,.09-.1.1-.1.06,0,.06-.06.16-.11.17-.09a.64.64,0,0,1,.18-.06l.19-.05h.19Z"/><path class="cls-1" d="M86.75,48.55a.57.57,0,0,1,0,.3v.08a.71.71,0,0,0,0,.14.32.32,0,0,1,0,.14.5.5,0,0,0,0,.12s0,.07,0,.11l-.06.19a1.07,1.07,0,0,1-.07.19,1.9,1.9,0,0,1-.48.68,2.36,2.36,0,0,1-.71.43l-.21.07-.23,0h-.44a.35.35,0,0,1-.15,0h-.17l-.09,0h-.14l-.18,0-.16,0-.2-.07-.19-.09a2.39,2.39,0,0,1-.52-.42,2.26,2.26,0,0,1-.36-.59.77.77,0,0,1-.07-.16c0-.06,0-.12,0-.18a.13.13,0,0,1,0-.08.31.31,0,0,0,0-.08.68.68,0,0,1,0-.14.76.76,0,0,0,0-.15.17.17,0,0,1,0-.07v-.08a.34.34,0,0,1,0-.15.57.57,0,0,1,0-.15v-.15a.28.28,0,0,1,0-.09.25.25,0,0,0,0-.08.29.29,0,0,1,0-.09l.06-.22a1.72,1.72,0,0,1,.07-.21,2.19,2.19,0,0,1,.37-.6,2.55,2.55,0,0,1,.53-.43l.19-.08.19-.08a.86.86,0,0,1,.23-.06l.25-.05h.26a2.89,2.89,0,0,1,.87.1,2.45,2.45,0,0,1,.65.31l.2.16a.73.73,0,0,1,.17.18,1.09,1.09,0,0,1,.13.17,1.74,1.74,0,0,0,.11.18.81.81,0,0,1,.1.21c0,.07,0,.15.08.23a.57.57,0,0,1,0,.14.75.75,0,0,0,0,.16v.07s0,.05,0,.07a.11.11,0,0,1,0,.1A.28.28,0,0,0,86.75,48.55Zm-1.22.31a.38.38,0,0,0,0-.12.45.45,0,0,0,0-.13v-.07a.28.28,0,0,1,0-.09s0-.07,0-.1a.43.43,0,0,0,0-.05l0-.14a.83.83,0,0,0,0-.15,1.28,1.28,0,0,0-.23-.38.82.82,0,0,0-.34-.26l-.11,0-.11,0-.15,0h-.16a.06.06,0,0,1-.06,0h-.06l-.12,0-.1,0a.85.85,0,0,0-.35.27,1.44,1.44,0,0,0-.21.41,1.06,1.06,0,0,0,0,.19l0,.19a.25.25,0,0,0,0,.08v.09a.87.87,0,0,0,0,.18.84.84,0,0,0,0,.19v.07l0,.14a.59.59,0,0,0,0,.13,2,2,0,0,0,.19.43,1,1,0,0,0,.32.29l.13.07.15,0s0,0,.06,0h.28l.14,0,.13,0a1.08,1.08,0,0,0,.37-.24,1.31,1.31,0,0,0,.23-.36,1.21,1.21,0,0,0,0-.18c0-.06,0-.12.05-.18s0,0,0-.07a.13.13,0,0,1,0-.06v-.17Z"/><path class="cls-1" d="M89.28,46.37a3.49,3.49,0,0,1,1.13.14,1.35,1.35,0,0,1,.74.55,2,2,0,0,1,.11.2,1.43,1.43,0,0,1,.08.22.5.5,0,0,1,0,.12.3.3,0,0,1,0,.1.16.16,0,0,1-.09.07l-.11,0H90.4a.23.23,0,0,1-.13-.07.76.76,0,0,1-.08-.11l-.06-.12a.24.24,0,0,0-.09-.11.62.62,0,0,0-.17-.1l-.21-.07-.18,0a.44.44,0,0,0-.17,0h-.23a.67.67,0,0,0-.24.12.43.43,0,0,0-.13.22.2.2,0,0,0,0,.11l0,.09a.61.61,0,0,0,.14.17l.2.1a1.9,1.9,0,0,0,.36.12l.4.09.4.08a2.29,2.29,0,0,1,.37.12l.15.06a.35.35,0,0,1,.14.06,2.37,2.37,0,0,1,.3.23,1,1,0,0,1,.22.3s0,.08,0,.12l0,.13a.63.63,0,0,1,0,.16.76.76,0,0,1,0,.17v.05s0,.07,0,.1a.28.28,0,0,1,0,.09,1.59,1.59,0,0,1-.19.46,1.22,1.22,0,0,1-.34.34,2.69,2.69,0,0,1-.45.22.73.73,0,0,1-.21.06l-.21.05-.16,0-.16,0H89.6a.62.62,0,0,1-.18,0l-.18,0h-.12l-.21,0-.2,0a3.65,3.65,0,0,1-.59-.22,1.1,1.1,0,0,1-.45-.38,2,2,0,0,1-.21-.38,1.06,1.06,0,0,1,0-.14,1,1,0,0,1,0-.12.49.49,0,0,1,0-.13.2.2,0,0,1,.09-.09l.1,0h.68l.12,0a.21.21,0,0,1,.13.11,1.22,1.22,0,0,0,.07.17.49.49,0,0,0,.07.11.24.24,0,0,0,.08.09,1,1,0,0,0,.2.13.91.91,0,0,0,.24.1h.18a.34.34,0,0,0,.15,0l.14,0h.09l.08,0,.22-.1a.61.61,0,0,0,.16-.16.71.71,0,0,0,.07-.22.2.2,0,0,0,0-.11.19.19,0,0,0,0-.09.45.45,0,0,0-.15-.18,1,1,0,0,0-.21-.11,2.06,2.06,0,0,0-.35-.12l-.36-.09L89,49a.35.35,0,0,1-.14,0l-.53-.15a1.5,1.5,0,0,1-.46-.22,1,1,0,0,1-.36-.47,1.57,1.57,0,0,1,0-.16s0-.09,0-.15a.81.81,0,0,1,0-.16s0,0,0-.07a.12.12,0,0,1,0-.08.85.85,0,0,1,0-.17.75.75,0,0,1,0-.16,1,1,0,0,1,.32-.41,1.66,1.66,0,0,1,.45-.26,1.17,1.17,0,0,1,.2-.06l.22,0,.1,0h.4Z"/><path class="cls-1" d="M96.8,48.68s0,.09,0,.16a.49.49,0,0,1,0,.15v.11a.57.57,0,0,0,0,.18.57.57,0,0,1,0,.18,1.24,1.24,0,0,1,0,.16,1,1,0,0,1,0,.16q-.06.15-.12.27a2,2,0,0,1-.14.25.76.76,0,0,1-.11.14l-.12.14-.06.06-.09.08-.1.06a.56.56,0,0,1-.15.1l-.17.08L95.4,51l-.18,0h-.11l-.12,0h-.3a.17.17,0,0,0-.1,0l-.11,0L94.21,51a.67.67,0,0,1-.23-.1l-.11-.07-.11-.09-.11-.07a.08.08,0,0,0-.12,0,.06.06,0,0,0,0,.06.29.29,0,0,1,0,.09.66.66,0,0,0,0,.2v1.32a.48.48,0,0,1,0,.18.19.19,0,0,1-.1,0l-.15,0h-.75a.2.2,0,0,1-.16-.17c0-.08,0-.18,0-.3V46.77a.29.29,0,0,1,0-.17.13.13,0,0,1,.09-.07.2.2,0,0,1,.11,0h.71a.18.18,0,0,1,.13,0,.19.19,0,0,1,.07.11.22.22,0,0,0,0,.13s0,0,0,0l0,0a.19.19,0,0,0,.16,0l.12-.1.23-.15a1.08,1.08,0,0,1,.27-.1l.15,0,.16,0h.14a2,2,0,0,1,.84.13,1.92,1.92,0,0,1,.59.4l.08.08.07.08a1.4,1.4,0,0,1,.1.16,1.3,1.3,0,0,1,.1.15l0,0a.14.14,0,0,0,0,.06,1,1,0,0,1,.09.21.36.36,0,0,1,0,.11l0,.11a.87.87,0,0,1,0,.22,2,2,0,0,0,0,.24.28.28,0,0,0,0,.09.41.41,0,0,0,0,.11Zm-1.23.2a.41.41,0,0,0,0-.12.34.34,0,0,0,0-.11v-.08a.43.43,0,0,1,0-.11.57.57,0,0,0,0-.13,1.36,1.36,0,0,0,0-.17.88.88,0,0,0,0-.15,1.27,1.27,0,0,0-.27-.44,1,1,0,0,0-.47-.24.34.34,0,0,0-.15,0h-.28l-.12,0a.45.45,0,0,0-.11,0,.79.79,0,0,0-.35.3,2,2,0,0,0-.2.44.8.8,0,0,0,0,.15.7.7,0,0,1,0,.14v.11a.09.09,0,0,0,0,.09v.09a.07.07,0,0,0,0,.09V49a.2.2,0,0,0,0,.07s0,.07,0,.09,0,.07,0,.11a.38.38,0,0,0,0,.1,1.43,1.43,0,0,0,.18.41,1.09,1.09,0,0,0,.31.29,1.6,1.6,0,0,0,.29.11h.34l.14,0a.58.58,0,0,0,.14,0,.8.8,0,0,0,.34-.25,1.28,1.28,0,0,0,.22-.36.9.9,0,0,0,.06-.22c0-.08,0-.15,0-.23s0-.06,0-.09Z"/><path class="cls-1" d="M101.62,50.63l0,.19a.13.13,0,0,1-.1.13.21.21,0,0,1-.12,0h-.76a.16.16,0,0,1-.12,0,.18.18,0,0,1-.09-.1.44.44,0,0,0-.08-.11l0,0h-.07l-.09,0-.08.05-.09.06-.11,0-.23.08-.25.07-.12,0H99a.48.48,0,0,1-.17,0h-.08a.25.25,0,0,0-.12,0H98.5l-.16,0a.42.42,0,0,1-.15,0,1.62,1.62,0,0,1-.43-.25,1,1,0,0,1-.28-.41.5.5,0,0,1,0-.13.57.57,0,0,1,0-.14.14.14,0,0,1,0-.09.28.28,0,0,0,0-.09,1,1,0,0,1,0-.11v-.11a.44.44,0,0,0,0-.15,1.46,1.46,0,0,0,.05-.2.87.87,0,0,1,.07-.17,1.2,1.2,0,0,1,.34-.39,2,2,0,0,1,.49-.22,1,1,0,0,1,.23-.06l.25-.05.14,0,.16,0a.25.25,0,0,1,.12,0l.13,0,.13,0h.13l.33-.08a.52.52,0,0,0,.27-.15.36.36,0,0,0,.11-.17v0a0,0,0,0,1,0,0,.43.43,0,0,0,0,0v-.05a.25.25,0,0,1,0-.07s0,0,0-.06a.54.54,0,0,0-.37-.36l-.18,0h-.22l-.22,0-.18,0-.1,0-.1.07-.09.09a.45.45,0,0,0-.06.12l-.08.16a.19.19,0,0,1-.12.11h-.92l-.05,0s-.07-.05-.09-.11a.14.14,0,0,1,0-.09.19.19,0,0,1,0-.08,1.21,1.21,0,0,1,0-.18,1.09,1.09,0,0,1,.08-.15.41.41,0,0,1,0-.09.22.22,0,0,1,.05-.08,1,1,0,0,1,.17-.19s0,0,.06,0l.07-.06.08-.05a1.2,1.2,0,0,1,.32-.16l.33-.1.22,0a1.81,1.81,0,0,0,.23,0h.2a5,5,0,0,1,.68,0,3.21,3.21,0,0,1,.59.13,1.58,1.58,0,0,1,.46.26,1.09,1.09,0,0,1,.29.41.94.94,0,0,1,.07.34c0,.13,0,.26,0,.39v2.28a1.06,1.06,0,0,0,0,.31.43.43,0,0,1,0,0Zm-1.27-1.34v-.2a.18.18,0,0,1,0-.1.06.06,0,0,0,0-.06.17.17,0,0,0-.13,0h-.06l-.06,0-.13,0-.14,0h-.08l-.22,0a.79.79,0,0,0-.22.05l-.13,0a.28.28,0,0,0-.12,0,.79.79,0,0,0-.31.23.58.58,0,0,0-.09.43.5.5,0,0,0,.09.25.49.49,0,0,0,.19.15.79.79,0,0,0,.26.08,1.06,1.06,0,0,0,.31,0,1,1,0,0,0,.3-.05.73.73,0,0,0,.35-.22.92.92,0,0,0,.2-.38.51.51,0,0,0,0-.13.61.61,0,0,1,0-.13Z"/><path class="cls-1" d="M104.6,46.37a2.55,2.55,0,0,1,1.17.21,1.83,1.83,0,0,1,.76.64,1.48,1.48,0,0,1,.2.48.2.2,0,0,1,0,.11.24.24,0,0,1,0,.12.14.14,0,0,1-.12.11l-.21,0h-.61a.29.29,0,0,1-.14,0,.17.17,0,0,1-.09-.11,1,1,0,0,0-.07-.15l-.12-.17a.58.58,0,0,0-.13-.14.8.8,0,0,0-.27-.12.22.22,0,0,0-.11,0l-.09,0h-.09a.72.72,0,0,0-.28,0,1,1,0,0,0-.41.23,1.3,1.3,0,0,0-.25.39.73.73,0,0,0-.06.21,1.55,1.55,0,0,0,0,.23.15.15,0,0,0,0,.07.13.13,0,0,1,0,.06.93.93,0,0,0,0,.25,1.44,1.44,0,0,0,0,.24.25.25,0,0,0,0,.1.5.5,0,0,1,0,.12.5.5,0,0,0,0,.12,2.09,2.09,0,0,0,.17.37.78.78,0,0,0,.24.27l.1.07a.53.53,0,0,0,.2.07l.25,0h.18l.12,0,.11,0a1,1,0,0,0,.4-.33l.06-.1a1,1,0,0,1,0-.1,1.62,1.62,0,0,1,.06-.17.23.23,0,0,1,.12-.12.77.77,0,0,1,.25,0h.6l.06,0,.06,0s0,.05,0,.1a.29.29,0,0,1,0,.13,2.84,2.84,0,0,1-.19.52,2,2,0,0,1-1.14.93l-.18,0a.58.58,0,0,0-.19,0h-.31l-.13,0-.13,0h-.24l-.09,0h-.09L103.9,51l-.16-.06a2.17,2.17,0,0,1-.69-.45,1.92,1.92,0,0,1-.45-.68.51.51,0,0,1-.07-.17,1.33,1.33,0,0,1,0-.19.15.15,0,0,1,0-.07.25.25,0,0,0,0-.07.5.5,0,0,1,0-.12.27.27,0,0,0,0-.13v-.15a.5.5,0,0,1,0-.2.11.11,0,0,0,0-.08v-.07a.22.22,0,0,0,0-.11.17.17,0,0,1,0-.1c0-.11,0-.21.07-.3a1.57,1.57,0,0,1,.08-.29,2.63,2.63,0,0,1,.48-.74,2.29,2.29,0,0,1,.74-.47,1.12,1.12,0,0,1,.26-.08l.27,0h.26Z"/><path class="cls-1" d="M111.77,48.69a.43.43,0,0,1,0,.16.17.17,0,0,1-.06.11.32.32,0,0,1-.13,0h-2.8l-.1,0s-.07,0-.08.07a.09.09,0,0,0,0,.06.28.28,0,0,0,0,.09.44.44,0,0,1,0,.1.29.29,0,0,0,0,.1,1,1,0,0,0,.17.35.8.8,0,0,0,.27.24.39.39,0,0,0,.14.05l.15,0,.2,0h.28l.16,0,.15,0,.19-.11a.46.46,0,0,0,.16-.14l.1-.12.11-.08a.48.48,0,0,1,.22,0h.55a.35.35,0,0,1,.12,0,.09.09,0,0,1,0,.08.31.31,0,0,1,0,.1,1.47,1.47,0,0,1-.1.22l-.12.19a1.94,1.94,0,0,1-.44.46,2,2,0,0,1-.61.29.59.59,0,0,1-.19.05l-.2,0h-.24l-.1,0-.1,0h-.12a.21.21,0,0,1-.11,0h-.1l-.09,0-.2,0a.51.51,0,0,1-.17-.07l-.18-.06-.15-.08a2.44,2.44,0,0,1-.5-.4,2,2,0,0,1-.35-.53,1.59,1.59,0,0,1-.07-.2,1.59,1.59,0,0,0-.07-.2.2.2,0,0,1,0-.07.13.13,0,0,0,0-.06.85.85,0,0,1,0-.23,1.94,1.94,0,0,1,0-.24v-.1a.14.14,0,0,1,0-.09v-.11l0-.21.06-.28a.84.84,0,0,1,.08-.27,2.24,2.24,0,0,1,1.27-1.27,1.13,1.13,0,0,1,.24-.08l.27,0h.26a2.19,2.19,0,0,1,.76.1,2.52,2.52,0,0,1,.57.28l.15.12a.89.89,0,0,1,.14.13.16.16,0,0,0,.07.07l.13.2.13.2c0,.06.06.11.08.16l.06.18a2.17,2.17,0,0,1,.07.24l.06.24a.77.77,0,0,1,0,.15.35.35,0,0,0,0,.15Zm-1.3-.51a.24.24,0,0,0,0-.22c0-.08-.06-.14-.07-.18a.89.89,0,0,0-.33-.36,1.06,1.06,0,0,0-.55-.14.07.07,0,0,1-.06,0h-.06l-.1,0-.1,0a1,1,0,0,0-.56.48.79.79,0,0,0,0,.09.53.53,0,0,0,0,.12.21.21,0,0,0,0,.11.16.16,0,0,0,.06.08.36.36,0,0,0,.19,0h1.46A.22.22,0,0,0,110.47,48.18Z"/><path class="cls-1" d="M119.39,50.82a.08.08,0,0,1,0,.07.1.1,0,0,1,0,0,.25.25,0,0,1-.16,0h-1a.32.32,0,0,1-.19-.07l-.07-.06,0-.06,0,0,0,0-.07-.09-.08-.09-.07-.05a.12.12,0,0,0-.11,0,.29.29,0,0,0-.11.06l-.09.06-.14.1a.71.71,0,0,1-.14.1l-.26.12-.29.11-.13,0-.13,0-.08,0H116l-.13,0h-.28l-.17,0-.17,0L115,51l-.19-.07a2.08,2.08,0,0,1-.38-.22,1.59,1.59,0,0,1-.29-.29l-.08-.13-.08-.13A.34.34,0,0,1,114,50a1.12,1.12,0,0,0,0-.13,2,2,0,0,1-.07-.26,1.32,1.32,0,0,1,0-.29v-.25s0,0,0-.06a.35.35,0,0,0,0-.13.53.53,0,0,1,0-.12,1.58,1.58,0,0,1,.28-.53,2.27,2.27,0,0,1,.41-.41l.32-.22.11-.06a.16.16,0,0,0,.08-.1.2.2,0,0,0,0-.18l-.1-.13a2.64,2.64,0,0,1-.25-.47.56.56,0,0,1,0-.12l0-.13a.92.92,0,0,1,0-.34,1.22,1.22,0,0,1,.06-.31,1.39,1.39,0,0,1,.35-.58,1.93,1.93,0,0,1,.56-.36l.19,0,.2,0h.21a2,2,0,0,1,.94.18,1.48,1.48,0,0,1,.6.53.93.93,0,0,0,.05.1s0,.07,0,.11a2.06,2.06,0,0,1,.11.43,1.42,1.42,0,0,1,0,.47c0,.08-.05.15-.08.22a.72.72,0,0,1-.09.2,2.61,2.61,0,0,1-.22.27,1.34,1.34,0,0,1-.25.23l-.09.08-.1.06-.05,0,0,0a.18.18,0,0,0,0,.12.36.36,0,0,0,0,.11L117,48l.07.08a1.28,1.28,0,0,0,.17.22l.17.22a.36.36,0,0,0,.09.08.12.12,0,0,0,.13,0,.39.39,0,0,0,.08-.1.5.5,0,0,0,0-.13l0-.15a.75.75,0,0,1,.07-.12.26.26,0,0,1,.23-.09h.58a.27.27,0,0,1,.16.08.26.26,0,0,1,0,.2,1.43,1.43,0,0,1,0,.2l0,.11a.29.29,0,0,1,0,.1c0,.1-.08.19-.11.28a2.1,2.1,0,0,1-.13.26l-.09.14a.23.23,0,0,0,0,.17.43.43,0,0,0,.11.2,1.14,1.14,0,0,1,.15.16,2,2,0,0,0,.23.27,2,2,0,0,1,.22.27l.06.07a.16.16,0,0,1,.07.07.31.31,0,0,0,.09.11Zm-2.68-1.09a.38.38,0,0,0,.09-.09.16.16,0,0,0,0-.15.31.31,0,0,0-.06-.13l-.09-.1-.14-.18a1.15,1.15,0,0,1-.14-.17l0,0,0,0-.12-.16a.93.93,0,0,1-.13-.15l-.13-.15a.24.24,0,0,0-.21-.08l-.07,0-.08,0-.06,0a1.59,1.59,0,0,0-.32.26.94.94,0,0,0-.2.35s0,.05,0,.07a.25.25,0,0,1,0,.08.6.6,0,0,0,0,.19c0,.06,0,.12,0,.16a.89.89,0,0,0,.61.55.75.75,0,0,0,.23,0,.55.55,0,0,0,.23,0,1.42,1.42,0,0,0,.35-.13A2.55,2.55,0,0,0,116.71,49.73Zm.12-3.5a.28.28,0,0,0,0-.13.29.29,0,0,0,0-.11.56.56,0,0,0-.38-.42.5.5,0,0,0-.19,0h-.08l-.11,0a.51.51,0,0,0-.31.34.65.65,0,0,0,0,.32s0,.06,0,.08a.24.24,0,0,0,0,.08,1.14,1.14,0,0,0,.1.19l.12.17.11.12s.1.07.15,0a.32.32,0,0,0,.13,0l.11-.09a.79.79,0,0,0,.31-.44.15.15,0,0,0,0-.07A.15.15,0,0,1,116.83,46.23Z"/><path class="cls-1" d="M127,47.67s0,0,0,.07v.19a.35.35,0,0,1,0,.06v.12s0,.07,0,.11a.28.28,0,0,0,0,.09.21.21,0,0,1,0,.08l0,.2a.68.68,0,0,1,0,.19c0,.1-.06.19-.08.28a1.43,1.43,0,0,1-.09.27,3.48,3.48,0,0,1-.36.66,2.3,2.3,0,0,1-.53.5,2.12,2.12,0,0,1-.36.21,2.37,2.37,0,0,1-.4.15l-.18,0-.18,0H122l-.25,0a.16.16,0,0,1-.15-.11,1.09,1.09,0,0,1,0-.22,2,2,0,0,0,0-.23V45.28a1.7,1.7,0,0,0,0-.22.36.36,0,0,1,0-.19.32.32,0,0,1,.13-.08h2.91a.2.2,0,0,0,.1,0,.16.16,0,0,1,.1,0l.24.05a.9.9,0,0,1,.22.06l.19.08.18.09a4.62,4.62,0,0,1,.4.27l0,0a1.21,1.21,0,0,1,.16.16l.08.07a1.13,1.13,0,0,0,.1.13l.1.14c.07.12.14.25.2.38a3.12,3.12,0,0,1,.15.43,1.05,1.05,0,0,1,.06.24,2,2,0,0,0,0,.24v.07a.2.2,0,0,1,0,.07.37.37,0,0,1,0,.11.37.37,0,0,0,0,.11Zm-1.35.42a.49.49,0,0,0,0-.14.53.53,0,0,0,0-.14v-.16a.88.88,0,0,1,0-.17c0-.06,0-.11,0-.15a.15.15,0,0,1,0-.09.25.25,0,0,0,0-.08c0-.09-.06-.18-.08-.26a1.33,1.33,0,0,0-.11-.24,2.2,2.2,0,0,0-.3-.37,1.56,1.56,0,0,0-.42-.25l-.15,0-.16,0h-.12l-.13,0h-.07s0,0-.06,0h-.84a.08.08,0,0,0-.07,0L123,46a.18.18,0,0,0-.07,0,.17.17,0,0,0,0,.13v.4c0,.09,0,.17,0,.25v2.54a.31.31,0,0,0,0,.1v.09s0,.08,0,.11a.36.36,0,0,0,0,.11.21.21,0,0,0,.2.1h1a1.49,1.49,0,0,0,.59-.1,1.2,1.2,0,0,0,.51-.34,2.33,2.33,0,0,0,.32-.54.75.75,0,0,0,0-.16c0-.06,0-.12,0-.17v-.07a.59.59,0,0,0,0-.13.59.59,0,0,1,0-.14Z"/><path class="cls-1" d="M132.1,48.69a.43.43,0,0,1,0,.16A.17.17,0,0,1,132,49a.32.32,0,0,1-.13,0h-2.8l-.1,0a.22.22,0,0,0-.09.07l0,.06a.28.28,0,0,0,0,.09.44.44,0,0,1,0,.1s0,.07,0,.1a1.27,1.27,0,0,0,.18.35.8.8,0,0,0,.27.24.34.34,0,0,0,.14.05l.15,0,.2,0h.28l.16,0,.15,0,.19-.11a.57.57,0,0,0,.16-.14l.1-.12.11-.08a.48.48,0,0,1,.22,0h.55a.48.48,0,0,1,.12,0s0,0,0,.08a.31.31,0,0,1,0,.1c0,.08-.07.15-.1.22l-.12.19a1.76,1.76,0,0,1-.44.46,2,2,0,0,1-.61.29.59.59,0,0,1-.19.05l-.2,0H130l-.1,0-.1,0h-.12a.26.26,0,0,1-.12,0h-.09l-.1,0-.19,0a.51.51,0,0,1-.17-.07l-.18-.06-.15-.08a2.44,2.44,0,0,1-.5-.4,2,2,0,0,1-.35-.53.8.8,0,0,1-.07-.2,1.59,1.59,0,0,0-.07-.2.2.2,0,0,1,0-.07.13.13,0,0,0,0-.06.85.85,0,0,1,0-.23,1.94,1.94,0,0,1,0-.24.38.38,0,0,0,0-.1.25.25,0,0,1,0-.09v-.11l0-.21.06-.28a1.19,1.19,0,0,1,.07-.27,2.3,2.3,0,0,1,1.27-1.27,1.44,1.44,0,0,1,.25-.08l.27,0h.26a2.19,2.19,0,0,1,.76.1,2.52,2.52,0,0,1,.57.28l.15.12a.89.89,0,0,1,.14.13.16.16,0,0,0,.07.07l.13.2.13.2c0,.06.06.11.08.16l.06.18a1.09,1.09,0,0,1,.07.24l.06.24a.77.77,0,0,1,0,.15.35.35,0,0,0,0,.15Zm-1.31-.51a.24.24,0,0,0,0-.22c0-.08-.06-.14-.07-.18a.89.89,0,0,0-.33-.36,1.06,1.06,0,0,0-.55-.14.07.07,0,0,1-.06,0h-.07l-.09,0-.1,0a1,1,0,0,0-.56.48.79.79,0,0,0,0,.09.27.27,0,0,0,0,.12.21.21,0,0,0,0,.11.16.16,0,0,0,.06.08.36.36,0,0,0,.19,0h1.46A.18.18,0,0,0,130.79,48.18Z"/><path class="cls-1" d="M134.54,44.78h.38a.52.52,0,0,1,.18,0,.14.14,0,0,1,.1.06.3.3,0,0,1,.05.2v.41a.22.22,0,0,1,0,.13.13.13,0,0,1-.09.07h-.37a1,1,0,0,0-.24.08.31.31,0,0,0-.14.2s0,0,0,.05a0,0,0,0,1,0,0s0,.06,0,.11v.11a.37.37,0,0,0,0,.11.13.13,0,0,0,.08.06.32.32,0,0,0,.2,0,.88.88,0,0,1,.23,0H135a.24.24,0,0,1,.11.08.34.34,0,0,1,0,.08s0,.08,0,.12a.62.62,0,0,1,0,.13c0,.05,0,.08,0,.1a.08.08,0,0,0,0,.07.13.13,0,0,1,0,.06.14.14,0,0,1-.11.13.21.21,0,0,1-.16,0h-.38a.23.23,0,0,0-.19.19.45.45,0,0,0,0,.12.66.66,0,0,1,0,.14v2.63a.37.37,0,0,0,0,.11.3.3,0,0,1,0,.1v.1a.35.35,0,0,1,0,.2.09.09,0,0,1-.06,0l-.09,0h-.74a.2.2,0,0,1-.11,0,.21.21,0,0,1-.14-.09.29.29,0,0,1,0-.11v-3a1.81,1.81,0,0,0,0-.25.17.17,0,0,0-.12-.15.45.45,0,0,0-.24,0,.35.35,0,0,1-.23,0,.18.18,0,0,1-.12-.15.3.3,0,0,1,0-.1.49.49,0,0,0,0-.12,1,1,0,0,1,0-.26.19.19,0,0,1,.14-.15l.15,0H133a.13.13,0,0,0,.09-.07.3.3,0,0,0,.05-.22,1,1,0,0,1,0-.25.64.64,0,0,1,0-.07.22.22,0,0,1,0-.08c0-.08,0-.16.07-.22a.69.69,0,0,1,.1-.19,1,1,0,0,1,.32-.34,1.85,1.85,0,0,1,.45-.19.37.37,0,0,1,.15,0l.15,0h.15Z"/><path class="cls-1" d="M140,48.69a.22.22,0,0,1,0,.16.17.17,0,0,1-.06.11.33.33,0,0,1-.12,0H137l-.1,0c-.05,0-.08,0-.09.07a.16.16,0,0,0,0,.06.1.1,0,0,0,0,.09.44.44,0,0,1,0,.1.3.3,0,0,0,0,.1,1.27,1.27,0,0,0,.17.35,1.05,1.05,0,0,0,.27.24.44.44,0,0,0,.15.05l.15,0,.19,0H138l.16,0,.14,0,.2-.11a.76.76,0,0,0,.16-.14l.09-.12a.36.36,0,0,1,.12-.08.46.46,0,0,1,.22,0h.54a.35.35,0,0,1,.12,0s0,0,0,.08a.16.16,0,0,1,0,.1,1.47,1.47,0,0,1-.1.22,1.45,1.45,0,0,1-.12.19,1.91,1.91,0,0,1-.43.46,2.16,2.16,0,0,1-.61.29.77.77,0,0,1-.19.05,1.38,1.38,0,0,0-.2,0h-.25l-.1,0-.09,0h-.13a.22.22,0,0,1-.11,0h-.1l-.09,0-.19,0a.48.48,0,0,1-.18-.07l-.17-.06a.8.8,0,0,1-.16-.08,2.38,2.38,0,0,1-.49-.4,1.77,1.77,0,0,1-.36-.53,1.59,1.59,0,0,1-.07-.2,1.59,1.59,0,0,0-.07-.2s0-.05,0-.07a.13.13,0,0,0,0-.06,1.57,1.57,0,0,1,0-.23,1.94,1.94,0,0,0,0-.24v-.3l0-.21.06-.28a1.2,1.2,0,0,1,.08-.27A2.27,2.27,0,0,1,137,46.52a1,1,0,0,1,.25-.08l.26,0h.26a2.16,2.16,0,0,1,.76.1,2.52,2.52,0,0,1,.57.28l.16.12.14.13a.12.12,0,0,0,.07.07l.13.2.13.2.07.16a1.34,1.34,0,0,0,.07.18,2.17,2.17,0,0,1,.07.24,1.05,1.05,0,0,0,.06.24.76.76,0,0,1,0,.15.66.66,0,0,0,0,.15Zm-1.3-.51a.24.24,0,0,0,0-.22c0-.08-.05-.14-.07-.18a.87.87,0,0,0-.32-.36,1.1,1.1,0,0,0-.56-.14.07.07,0,0,1-.06,0h-.06l-.1,0-.09,0a1,1,0,0,0-.57.48l0,.09,0,.12a.41.41,0,0,0,0,.11.14.14,0,0,0,0,.08.37.37,0,0,0,.2,0h1.45A.22.22,0,0,0,138.68,48.18Z"/><path class="cls-1" d="M143.27,46.38a1.89,1.89,0,0,1,.87.15,1.35,1.35,0,0,1,.55.48.78.78,0,0,1,.09.21c0,.07.05.14.07.22a.59.59,0,0,1,0,.13s0,.08,0,.12a.35.35,0,0,0,0,.07,2.11,2.11,0,0,1,0,.25v2.75a.21.21,0,0,1-.13.2l-.12,0h-.61l-.19,0a.19.19,0,0,1-.12-.07.2.2,0,0,1,0-.13,1.09,1.09,0,0,1,0-.18V48.67c0-.21,0-.41,0-.59a1,1,0,0,0-.16-.47.68.68,0,0,0-.36-.24l-.09,0a.2.2,0,0,1-.1,0h-.32a.86.86,0,0,0-.32.14.78.78,0,0,0-.33.58,5.69,5.69,0,0,0-.05.86v1.78a.28.28,0,0,1,0,.13.18.18,0,0,1-.14.11l-.23,0h-.63a.26.26,0,0,1-.14-.06.33.33,0,0,1-.05-.23V46.86a.91.91,0,0,1,0-.17.2.2,0,0,1,0-.13.09.09,0,0,1,.06,0l.08,0h.73l.12,0s.06,0,.08.08l0,.12v.06a.11.11,0,0,0,0,0l0,.05,0,0a.19.19,0,0,0,.16-.07.45.45,0,0,1,.13-.11,2,2,0,0,1,.52-.28l.16,0,.18,0h.15Z"/><path class="cls-1" d="M147.58,46.37a3.53,3.53,0,0,1,1.13.14,1.35,1.35,0,0,1,.74.55,2,2,0,0,1,.11.2,1.43,1.43,0,0,1,.08.22.5.5,0,0,1,0,.12.3.3,0,0,1,0,.1.18.18,0,0,1-.1.07l-.1,0h-.74a.23.23,0,0,1-.13-.07l-.08-.11-.06-.12a.24.24,0,0,0-.09-.11.62.62,0,0,0-.17-.1,1,1,0,0,0-.21-.07l-.17,0a.48.48,0,0,0-.18,0h-.23a.67.67,0,0,0-.24.12.43.43,0,0,0-.13.22.2.2,0,0,0,0,.11l0,.09a.61.61,0,0,0,.14.17l.2.1a1.9,1.9,0,0,0,.36.12l.4.09.4.08a2.29,2.29,0,0,1,.37.12l.15.06a.35.35,0,0,1,.14.06,2.37,2.37,0,0,1,.3.23,1,1,0,0,1,.22.3.56.56,0,0,1,0,.12.65.65,0,0,0,0,.13s0,.09,0,.16a.76.76,0,0,1,0,.17v.05a.36.36,0,0,0,0,.1.28.28,0,0,1,0,.09,1.59,1.59,0,0,1-.19.46,1.22,1.22,0,0,1-.34.34,2.69,2.69,0,0,1-.45.22l-.21.06-.21.05-.16,0-.16,0h-.16a.62.62,0,0,1-.18,0l-.18,0h-.12l-.2,0L147,51a3.65,3.65,0,0,1-.59-.22,1.1,1.1,0,0,1-.45-.38,2,2,0,0,1-.21-.38,1.06,1.06,0,0,1,0-.14l0-.12a.49.49,0,0,1,0-.13.2.2,0,0,1,.09-.09l.1,0h.68l.12,0a.21.21,0,0,1,.13.11,1.22,1.22,0,0,0,.07.17.49.49,0,0,0,.07.11.24.24,0,0,0,.08.09,1,1,0,0,0,.2.13.91.91,0,0,0,.24.1h.18a.34.34,0,0,0,.15,0l.14,0H148l.09,0,.22-.1a.61.61,0,0,0,.16-.16.71.71,0,0,0,.07-.22.2.2,0,0,0,0-.11.19.19,0,0,0,0-.09.45.45,0,0,0-.15-.18,1,1,0,0,0-.21-.11,2.06,2.06,0,0,0-.35-.12l-.36-.09-.15,0a.35.35,0,0,1-.14,0l-.53-.15a1.5,1.5,0,0,1-.46-.22,1,1,0,0,1-.36-.47,1.57,1.57,0,0,1,0-.16s0-.09,0-.15a.81.81,0,0,1,0-.16s0,0,0-.07a.12.12,0,0,1,0-.08.85.85,0,0,1,0-.17.75.75,0,0,1,0-.16,1,1,0,0,1,.32-.41,1.66,1.66,0,0,1,.45-.26,1.17,1.17,0,0,1,.2-.06l.22,0,.1,0h.4Z"/><path class="cls-1" d="M154.79,48.69a.22.22,0,0,1,0,.16.17.17,0,0,1-.06.11.33.33,0,0,1-.12,0h-2.8l-.1,0c-.05,0-.08,0-.09.07a.16.16,0,0,0,0,.06.14.14,0,0,0,0,.09.44.44,0,0,1,0,.1.3.3,0,0,0,0,.1,1.27,1.27,0,0,0,.17.35,1,1,0,0,0,.28.24.34.34,0,0,0,.14.05l.15,0,.19,0h.29l.16,0,.14,0a1.36,1.36,0,0,0,.2-.11.76.76,0,0,0,.16-.14l.09-.12a.36.36,0,0,1,.12-.08.48.48,0,0,1,.22,0h.54a.35.35,0,0,1,.12,0s0,0,0,.08a.16.16,0,0,1,0,.1l-.09.22-.13.19a1.73,1.73,0,0,1-.43.46,2.16,2.16,0,0,1-.61.29.67.67,0,0,1-.19.05l-.2,0h-.24l-.1,0-.1,0h-.13a.22.22,0,0,1-.11,0h-.09l-.1,0-.19,0a.56.56,0,0,1-.18-.07l-.17-.06a.8.8,0,0,1-.16-.08,2.38,2.38,0,0,1-.49-.4,2,2,0,0,1-.36-.53,1.59,1.59,0,0,1-.07-.2.8.8,0,0,0-.07-.2v-.07s0,0,0-.06a.86.86,0,0,1-.05-.23c0-.08,0-.16,0-.24s0-.06,0-.1a.25.25,0,0,1,0-.09v-.11l0-.21a1.57,1.57,0,0,0,.06-.28,2.13,2.13,0,0,1,.08-.27,2.27,2.27,0,0,1,1.27-1.27,1,1,0,0,1,.25-.08l.26,0h.26a2.16,2.16,0,0,1,.76.1,2.33,2.33,0,0,1,.57.28l.16.12.14.13a.16.16,0,0,0,.07.07l.13.2.13.2.07.16.07.18a2.17,2.17,0,0,1,.07.24,2.1,2.1,0,0,0,.06.24.76.76,0,0,1,0,.15.66.66,0,0,0,0,.15Zm-1.3-.51a.21.21,0,0,0,0-.22c0-.08-.05-.14-.07-.18a.87.87,0,0,0-.32-.36,1.1,1.1,0,0,0-.56-.14.06.06,0,0,1-.06,0h-.06l-.1,0-.09,0a1,1,0,0,0-.57.48l0,.09,0,.12a.41.41,0,0,0,0,.11.16.16,0,0,0,.06.08.31.31,0,0,0,.19,0h1.45A.22.22,0,0,0,153.49,48.18Z"/><path class="cls-1" d="M140.51,27.74a7.62,7.62,0,0,1-6,2.46H124.8a.14.14,0,0,1-.15-.15V26.52c-3.51-.19-7.27-.35-11.26-.45V38.73h23.4c8.39,0,13.76-3.21,16.25-9.45C150.69,28.93,146.41,28.33,140.51,27.74Z"/><path class="cls-1" d="M76.71,26.7,72,38.73H84.42l2.09-6.29h15.15l2.09,6.29h6.18V26C100.05,25.81,88.87,26,76.71,26.7Z"/><path class="cls-1" d="M65.69,27.52a3.73,3.73,0,0,1-3.95,2.86H49.31V29.29Q43.61,30,37.75,31v7.78H69l4.74-11.84Q69.79,27.16,65.69,27.52Z"/><path class="cls-1" d="M1.07,38.73H34.42V31.49C23.68,33.29,12.41,35.76,1.07,38.73Z"/><path class="cls-2" d="M124.65,22.31V8.68a.15.15,0,0,1,.15-.15h8.74c6.37,0,9.47,3.53,9.47,10.78a19,19,0,0,1-.27,3.32q5.77.2,11.73.49a37,37,0,0,0,.19-3.75c0-6.35-1.41-11.21-4.2-14.43S143.63.15,138.3.15H113.39V22.39C117.07,22.33,120.83,22.3,124.65,22.31Z"/><path class="cls-2" d="M89.6,23.28,94,9.76h.1l4.29,13.07q5.63-.24,11.51-.38v-.27L101.22,0H87.09L77.71,24.12Q83.52,23.64,89.6,23.28Z"/><path class="cls-2" d="M49.31,27.31v-4.8H61.74c2,0,3.54.93,4,2.75,3-.32,6-.61,9.08-.89l1.52-3.82A5.75,5.75,0,0,0,72,17.47v-.11c2.48-1,4.28-4.18,4.28-7.81S74.85,0,66.45,0H37.75V29.12Q43.32,28.16,49.31,27.31Zm0-19H60.82c2.47,0,3.54,1.52,3.54,3.26s-1.07,3.31-3.54,3.31H49.31Z"/><path class="cls-2" d="M29.93,30.53H11.41a.15.15,0,0,1-.15-.15v-7a.15.15,0,0,1,.15-.15H33V15.5H11.41a.14.14,0,0,1-.15-.15v-7a.15.15,0,0,1,.15-.15h23v-8H0V37.52C8.41,35.15,18.38,32.73,29.93,30.53Z"/><path class="cls-2" d="M124.65,22.31V8.68a.15.15,0,0,1,.15-.15h8.74c6.37,0,9.47,3.53,9.47,10.78a19,19,0,0,1-.27,3.32q5.77.2,11.73.49a37,37,0,0,0,.19-3.75c0-6.35-1.41-11.21-4.2-14.43S143.63.15,138.3.15H113.39V22.39C117.07,22.33,120.83,22.3,124.65,22.31Z"/><path class="cls-2" d="M89.6,23.28,94,9.76h.1l4.29,13.07q5.63-.24,11.51-.38v-.27L101.22,0H87.09L77.71,24.12Q83.52,23.64,89.6,23.28Z"/><path class="cls-2" d="M29.93,30.53H11.41a.15.15,0,0,1-.15-.15v-7a.15.15,0,0,1,.15-.15H33V15.5H11.41a.14.14,0,0,1-.15-.15v-7a.15.15,0,0,1,.15-.15h23v-8H0V37.52C8.41,35.15,18.38,32.73,29.93,30.53Z"/><path class="cls-1" d="M29.76,48.3h.14s.13,0,.14.11a.17.17,0,0,1,0,.07.28.28,0,0,0,0,.09V49a.1.1,0,0,1,0,.08.57.57,0,0,1-.18,0H28a.11.11,0,0,1-.07,0,.39.39,0,0,1,0-.09v-.43a.11.11,0,0,1,0-.08v0s0,0,0-.07,0,0,0,0,.15,0,.17,0h1.63Z"/><path class="cls-1" d="M151.81,35.82h2.54v.7h-.84v2.21h-.86V36.52h-.84Zm3,0H156l.26.89c.12.41.25,1.07.25,1.07h0s.13-.66.25-1.07l.27-.89h1.16v2.91h-.76v-.86c0-.48,0-1.24,0-1.24h0s-.16.7-.31,1.16l-.29.94h-.67l-.29-.94c-.14-.46-.3-1.16-.3-1.16h0s0,.76,0,1.24v.86h-.74Z"/></g></g></svg>